<?xml version="1.0" encoding="UTF-8"?>
<svg data-name="Laag 1" viewBox="0 0 91 20" width="100%" height="100%" xmlns="http://www.w3.org/2000/svg">
    <path d="M87.71,20H3.29A3.16,3.16,0,0,1,0,17V3A3.16,3.16,0,0,1,3.29,0H87.71A3.16,3.16,0,0,1,91,3V17A3.16,3.16,0,0,1,87.71,20Z" fill="#fab200"/>
    <text transform="translate(38.71 14.49) scale(1.07 1)" fill="#fff" font-family="Verdana" font-size="11.225px">runme</text>
    <text transform="translate(37.97 13.8) scale(1.07 1)" font-family="Verdana" font-size="11.225px">runme</text>
    <path d="M20.62,15.34a2.92,2.92,0,0,1-.9.13,3,3,0,1,1,2-5.36c-.7-1.62-2.28-3.3-5.87-2.56h0c-3.62-.74-5.2,1-5.89,2.6a3,3,0,0,1,2-.75,3,3,0,1,1,0,6.07,3.29,3.29,0,0,1-.94-.14,6.18,6.18,0,0,0,9.66,0Z" fill="#f9b900"/>
    <path d="M20.71,6.17l1.94-1.94a.52.52,0,1,0-.74-.74l-2,2a7.21,7.21,0,0,0-8.49.23L9.15,3.49a.52.52,0,0,0-.73,0,.51.51,0,0,0,0,.74l2.2,2.2a7.23,7.23,0,1,0,10.09-.26ZM11,15.33a3.29,3.29,0,0,0,.94.14,3,3,0,1,0,0-6.07,3,3,0,0,0-2,.75c.69-1.64,2.27-3.34,5.89-2.6h0c3.59-.74,5.17.94,5.87,2.56a3,3,0,1,0-2,5.36,2.92,2.92,0,0,0,.9-.13,6.18,6.18,0,0,1-9.66,0Zm.94-4.67a.91.91,0,1,1,.91.91A.91.91,0,0,1,11.9,10.66Zm9.63,0a.91.91,0,1,1-.9-.9A.91.91,0,0,1,21.53,10.66Z" fill="#191919"/>
    <path d="M13.71,10.66a.91.91,0,1,0-.9.91A.91.91,0,0,0,13.71,10.66Z" fill="#fff"/>
    <path d="M19.72,10.66a.91.91,0,1,0,.91-.9A.91.91,0,0,0,19.72,10.66Z" fill="#fff"/>
    <line x1="31.99" x2="31.99" y1="3.87" y2="16.47" fill="#232323" stroke="#232323" stroke-miterlimit="10" stroke-width=".5px"/>
    <line x1="32.73" x2="32.73" y1="4.61" y2="17.22" fill="#fff" stroke="#fff" stroke-miterlimit="10" stroke-width=".25px"/>
</svg>
