<?xml version="1.0" encoding="UTF-8"?>
<svg data-name="Laag 1" viewBox="0 0 59.17 61.55" xmlns="http://www.w3.org/2000/svg">
  <path transform="translate(-35.79 16.33)" d="M85.31,31.76a12.17,12.17,0,1,1,4.22-21C86.72,4.3,80.37-2.41,66,.56v0C51.5-2.43,45.17,4.4,42.39,11a12.17,12.17,0,1,1,8,21.34,12.34,12.34,0,0,1-3.77-.59,24.76,24.76,0,0,0,38.7.05Z" fill="#fab200"/>
  <path transform="translate(-35.79 16.33)" d="M85.66-5l7.78-7.77a2.11,2.11,0,0,0,0-3,2.11,2.11,0,0,0-3,0l-8.1,8.1a28.89,28.89,0,0,0-34,.9l-9-9a2.11,2.11,0,0,0-3,0,2.11,2.11,0,0,0,0,3l8.83,8.82A29,29,0,1,0,85.66-5Zm-39,36.7a12.34,12.34,0,0,0,3.77.59,12.17,12.17,0,1,0-8-21.34C45.17,4.4,51.5-2.43,66,.56v0c14.37-3,20.72,3.74,23.53,10.25a12.16,12.16,0,1,0-4.22,21,24.76,24.76,0,0,1-38.7-.05ZM50.38,13A3.62,3.62,0,1,1,54,16.65,3.62,3.62,0,0,1,50.38,13ZM89,13a3.62,3.62,0,1,1-3.62-3.62A3.62,3.62,0,0,1,89,13Z" fill="#191919"/>
  <path transform="translate(-35.79 16.33)" d="M57.62,13A3.62,3.62,0,1,0,54,16.65,3.62,3.62,0,0,0,57.62,13Z" fill="#fff"/>
  <path transform="translate(-35.79 16.33)" d="M81.71,13a3.62,3.62,0,1,0,3.62-3.62A3.63,3.63,0,0,0,81.71,13Z" fill="#fff"/>
</svg>
