<svg id="Laag_1" data-name="Laag 1" xmlns="http://www.w3.org/2000/svg" width="186.55" height="69.89" viewBox="0 0 186.55 69.89"><path d="M133.87,3a6,6,0,0,1-1.75.26,5.92,5.92,0,0,1-5.91-5.91,5.92,5.92,0,0,1,5.91-5.91,5.87,5.87,0,0,1,3.79,1.38c-1.36-3.16-4.44-6.42-11.42-5h0c-7-1.46-10.11,1.86-11.45,5a5.89,5.89,0,0,1,3.87-1.45,5.91,5.91,0,0,1,5.91,5.91,5.91,5.91,0,0,1-5.91,5.91,5.78,5.78,0,0,1-1.82-.29,12,12,0,0,0,9.4,4.53A12,12,0,0,0,133.87,3Z" transform="translate(48 20.38)" style="fill:#fab200"/><path d="M134-14.88l3.77-3.77a1,1,0,0,0,0-1.44,1,1,0,0,0-1.44,0l-3.93,3.94a13.91,13.91,0,0,0-8-2.48,14,14,0,0,0-8.56,2.91l-4.37-4.37a1,1,0,0,0-1.43,0,1,1,0,0,0,0,1.44l4.28,4.28a14.06,14.06,0,0,0-4,9.81A14.08,14.08,0,0,0,124.48,9.5,14.08,14.08,0,0,0,138.55-4.56,14,14,0,0,0,134-14.88Zm-19,17.82a5.78,5.78,0,0,0,1.82.29,5.91,5.91,0,0,0,5.91-5.91,5.91,5.91,0,0,0-5.91-5.91A5.89,5.89,0,0,0,113-7.14c1.34-3.18,4.42-6.5,11.45-5h0c7-1.45,10.06,1.81,11.42,5a5.87,5.87,0,0,0-3.79-1.38,5.92,5.92,0,0,0-5.91,5.91,5.92,5.92,0,0,0,5.91,5.91A6,6,0,0,0,133.87,3a12,12,0,0,1-9.39,4.5A12,12,0,0,1,115.08,2.94Zm1.82-9.07a1.76,1.76,0,0,1,1.76-1.76,1.76,1.76,0,0,1,1.76,1.76,1.76,1.76,0,0,1-1.76,1.76A1.76,1.76,0,0,1,116.9-6.13Zm18.73,0a1.75,1.75,0,0,1-1.75,1.76,1.76,1.76,0,0,1-1.76-1.76,1.76,1.76,0,0,1,1.76-1.76A1.75,1.75,0,0,1,135.63-6.13Z" transform="translate(48 20.38)" style="fill:#161616"/><path d="M120.42-6.13a1.76,1.76,0,0,0-1.76-1.76,1.76,1.76,0,0,0-1.76,1.76,1.76,1.76,0,0,0,1.76,1.76A1.76,1.76,0,0,0,120.42-6.13Z" transform="translate(48 20.38)" style="fill:#fff"/><path d="M132.12-6.13a1.76,1.76,0,0,0,1.76,1.76,1.75,1.75,0,0,0,1.75-1.76,1.75,1.75,0,0,0-1.75-1.76A1.76,1.76,0,0,0,132.12-6.13Z" transform="translate(48 20.38)" style="fill:#fff"/><path d="M83.64-2.32c-1.22.12-2.38.27-3.48.43s-2.11.36-3,.58-1.71.42-2.33.61l1.37,8.6a24.15,24.15,0,0,1,4.59-1.11,36.94,36.94,0,0,1,5.38-.39q4.08,0,5.73,1.65a5.91,5.91,0,0,1,1.65,4.37v1A16.54,16.54,0,0,0,90.88,13a33.48,33.48,0,0,0-3.69-.18,28.25,28.25,0,0,0-6,.61,16.08,16.08,0,0,0-5.09,2A10.13,10.13,0,0,0,72.6,19a11,11,0,0,0-1.33,5.6,13.12,13.12,0,0,0,1.15,5.8,9.65,9.65,0,0,0,3.29,3.84,14.49,14.49,0,0,0,5.13,2.12,31.5,31.5,0,0,0,6.64.64,60.58,60.58,0,0,0,9.89-.68c2.73-.45,4.86-.85,6.39-1.18V12.92A23.87,23.87,0,0,0,103,6.54a11.38,11.38,0,0,0-2.69-4.88,12.26,12.26,0,0,0-5.06-3.08A24.61,24.61,0,0,0,87.34-2.5c-1.25,0-2.48.06-3.7.18m-.07,30.13a3.69,3.69,0,0,1-1.69-3.48,3.73,3.73,0,0,1,.58-2.15A4,4,0,0,1,84,20.81a7.56,7.56,0,0,1,2.34-.68A21,21,0,0,1,89.2,20a23,23,0,0,1,2.37.14c.86.1,1.5.2,1.93.29v8.11a20.57,20.57,0,0,1-2.29.21c-1,.05-2,.07-3,.07a9.36,9.36,0,0,1-4.63-1m-17-29.3H55.92V36.23H66.61Zm-40,0H15Q18.22,3,21.46,7.63l6.76,9.61c-1.31,1.44-2.66,3-4,4.63a63.29,63.29,0,0,0-3.81,5.07Q18.61,29.55,17.13,32t-2.38,4.22H25.62c.51-.95,1.08-2,1.73-3.07l2-3.33A14.44,14.44,0,0,1,31.46,27c.75-.75,1.48-1.43,2.21-2.05.75.67,1.52,1.41,2.3,2.22a17,17,0,0,1,2.24,3c.72,1.17,1.37,2.3,1.94,3.37s1.05,2,1.44,2.69H53.05a93.65,93.65,0,0,0-5.6-9.1,112,112,0,0,0-8-10.28L52.55-1.49h-11L34,9.08ZM-10.78,13.57a14.94,14.94,0,0,1,.68-2.69A7.15,7.15,0,0,1-8.77,8.55,6.24,6.24,0,0,1-6.62,6.94a7.11,7.11,0,0,1,3.08-.61A6.74,6.74,0,0,1-.42,7,6.45,6.45,0,0,1,1.66,8.62a6.61,6.61,0,0,1,1.22,2.3,10.76,10.76,0,0,1,.47,2.65ZM-20.57,25.4a16.45,16.45,0,0,0,3.66,6.21,17.27,17.27,0,0,0,6.24,4.12,23.85,23.85,0,0,0,8.86,1.51,36.05,36.05,0,0,0,4-.22c1.34-.14,2.6-.32,3.77-.54a28.39,28.39,0,0,0,3.19-.75,15.36,15.36,0,0,0,2.3-.86L10,26.19a21.72,21.72,0,0,1-4.63,1.33,30.74,30.74,0,0,1-5.77.54,12.37,12.37,0,0,1-7.31-1.94,7.09,7.09,0,0,1-3.09-5.23H13.46c0-.58.1-1.23.15-2s.07-1.42.07-2Q13.68,7.33,9,2.42T-3.68-2.5a18.15,18.15,0,0,0-6.71,1.29A16.93,16.93,0,0,0-16.16,2.6a18.86,18.86,0,0,0-4.05,6.27,23,23,0,0,0-1.54,8.79,24.52,24.52,0,0,0,1.18,7.74M-30.79,45.92q3.66-3.59,3.66-11.05V-1.49H-37.82V34.58a7.89,7.89,0,0,1-1,4.38,3.92,3.92,0,0,1-3.52,1.51,14.18,14.18,0,0,1-2.26-.15,12.12,12.12,0,0,1-2-.5L-48,48.5a18.26,18.26,0,0,0,3.69.79c1.32.14,2.31.21,3,.21q6.88,0,10.54-3.58" transform="translate(48 20.38)" style="fill:#fab200"/></svg>