<?xml version="1.0" encoding="UTF-8"?>
<svg data-name="Laag 1" viewBox="0 0 363.43 87.57" xmlns="http://www.w3.org/2000/svg">
    <rect width="363.43" height="87.57" rx="13.14" fill="#fab200"/>
    <text transform="translate(150.92 60.96)" font-family="Verdana" font-size="48.165px">runme</text>
    <path transform="translate(116.44 29.44)" d="M-35.06,33.67a11.94,11.94,0,0,1-3.6.55A12.17,12.17,0,0,1-50.83,22.05,12.17,12.17,0,0,1-38.66,9.88a12.1,12.1,0,0,1,7.81,2.84C-33.65,6.21-40-.5-54.38,2.48v0C-68.87-.52-75.21,6.31-78,12.87a12.13,12.13,0,0,1,8-3A12.17,12.17,0,0,1-57.83,22.05,12.17,12.17,0,0,1-70,34.22a12.28,12.28,0,0,1-3.76-.6A24.76,24.76,0,0,0-54.39,43,24.75,24.75,0,0,0-35.06,33.67Z" fill="#f9b900"/>
    <path transform="translate(116.44 29.44)" d="M-34.71-3.08l7.77-7.77a2.09,2.09,0,0,0,0-3,2.09,2.09,0,0,0-2.95,0L-38-5.71a28.87,28.87,0,0,0-16.4-5.1A28.82,28.82,0,0,0-72-4.81l-9-9a2.09,2.09,0,0,0-3,0,2.09,2.09,0,0,0,0,3L-75.14-2a28.86,28.86,0,0,0-8.22,20.19,29,29,0,0,0,29,29,29,29,0,0,0,29-29A28.91,28.91,0,0,0-34.71-3.08Zm-39.05,36.7a12.28,12.28,0,0,0,3.76.6A12.17,12.17,0,0,0-57.83,22.05,12.17,12.17,0,0,0-70,9.88a12.13,12.13,0,0,0-8,3C-75.21,6.31-68.87-.52-54.39,2.48v0C-40-.5-33.65,6.21-30.85,12.72a12.1,12.1,0,0,0-7.81-2.84A12.17,12.17,0,0,0-50.83,22.05,12.17,12.17,0,0,0-38.66,34.22a11.94,11.94,0,0,0,3.6-.55A24.75,24.75,0,0,1-54.39,43,24.76,24.76,0,0,1-73.76,33.62ZM-70,14.94a3.62,3.62,0,0,1,3.62-3.62,3.62,3.62,0,0,1,3.62,3.62,3.62,3.62,0,0,1-3.62,3.62A3.62,3.62,0,0,1-70,14.94Zm38.58,0A3.62,3.62,0,0,1-35,18.56a3.62,3.62,0,0,1-3.62-3.62A3.62,3.62,0,0,1-35,11.32,3.62,3.62,0,0,1-31.42,14.94Z" fill="#191919"/>
    <path transform="translate(116.44 29.44)" d="m-62.76 14.94a3.62 3.62 0 0 0-3.62-3.62 3.62 3.62 0 0 0-3.62 3.62 3.62 3.62 0 0 0 3.62 3.62 3.62 3.62 0 0 0 3.62-3.62z" fill="#fff"/>
    <path transform="translate(116.44 29.44)" d="m-38.66 14.94a3.62 3.62 0 0 0 3.66 3.62 3.62 3.62 0 0 0 3.62-3.62 3.62 3.62 0 0 0-3.62-3.62 3.62 3.62 0 0 0-3.66 3.62z" fill="#fff"/>
    <line x1="126.94" x2="126.94" y1="20.15" y2="70.66" fill="#191919" stroke="#191919" stroke-miterlimit="10" stroke-width="2px"/>
</svg>
