<?xml version="1.0" encoding="UTF-8"?>
<svg data-name="Laag 1" viewBox="0 0 619.22 545.77" width="100%" height="100%" xmlns="http://www.w3.org/2000/svg">
    <g opacity=".64">
        <path transform="translate(244.22 258.54)" d="M-90.59,1.75a4.89,4.89,0,0,0-2-2.52,4.18,4.18,0,0,0-1.11-1.29c.06-.29.11-.59.17-.88,1-5.47-7.36-7.81-8.38-2.31C-102.47-2.16-103,.94-103.62,4a5,5,0,0,0,.44,3.14,3.37,3.37,0,0,0,.91,1.91,9.55,9.55,0,0,0,.57,2.6,4.64,4.64,0,0,0,4.6,3.19,4.7,4.7,0,0,0,3.49-1.18A11.26,11.26,0,0,0-90.59,1.75Z" fill="#c2deff"/>
        <path transform="translate(244.22 258.54)" d="m-82.62-23a4.44 4.44 0 0 0-5.95-1.55 31.22 31.22 0 0 0-10.28 7.92 4.46 4.46 0 0 0 0 6.14c1.56 1.56 4.62 1.8 6.14 0a25.13 25.13 0 0 1 8.53-6.51c2.11-1.06 2.67-4.08 1.56-6z" fill="#f0f8ff"/>
        <path transform="translate(244.22 258.54)" d="M-50.23,182.85l-.1-36.65-.09-35.94c0-10.53.42-21.22-.93-31.7a50.51,50.51,0,0,0-6-19.07c-.39-3.43-1.41-6.67-3.89-9.07-2.87-2.78-7.31-4.06-11.65-5a59.33,59.33,0,0,0-8.23-3.24c-8.23-2.59-16.82-3.73-25.19-5.81-7.79-1.94-16.06-4.79-21.13-11.42-2.77-3.63-8.41-1.3-8.35,2.13a4.86,4.86,0,0,0-.62.35c-4.37,2.87-3.94,6.63-1.57,10.28a11.68,11.68,0,0,0-2.64,12s0,0,0,0c-2.62,2-1.44,6.66,1.71,7.53,5.35,1.46,11,.84,16.53.82q9.15,0,18.27.3l.4,0c3,.94,6,1.82,9,2.68a3.92,3.92,0,0,0,4.76-2c3.38.22,6.75.49,10.12.79,1,.5,2,1,2.92,1.6.71.52,1.43,1,2.12,1.58a9.41,9.41,0,0,1,.73.61,59.87,59.87,0,0,0-.19,22.21q-.41,5.93-.44,11.87a3.94,3.94,0,0,0,1.82,3.58,59.11,59.11,0,0,0-.09,6.79,4.3,4.3,0,0,0-.92,2.51q-.86,15.5-1.73,31a4.1,4.1,0,0,0,.59,2.46l-.57,16.42a3.77,3.77,0,0,0,4,4.17c0,.28,0,.57,0,.85a4.26,4.26,0,0,0-2.25,3.66q-.51,8.78-1,17.53c-.27,4.58-.71,9.11,0,13.66,1.35,8.14,8.84,14.94,17.11,10.12C-48.26,205.05-50.2,192-50.23,182.85ZM-59,197.57c.12-2.16.25-4.32.37-6.48A29.91,29.91,0,0,1-59,197.57Z" fill="#f0f8ff"/>
        <path transform="translate(244.22 258.54)" d="m88.34 180.15-8.22 0.83c-2.33 0.24-4.34 1.83-4.34 4.34 0 2.17 2 4.58 4.34 4.35l8.22-0.83c2.33-0.24 4.34-1.83 4.34-4.35 0-2.16-2-4.58-4.34-4.34z" fill="#c2deff"/>
        <path transform="translate(244.22 258.54)" d="m58.39 166.41-14.46 1.15c-5.53 0.44-5.58 9.13 0 8.69l14.46-1.16c5.54-0.44 5.61-9.09 0-8.68z" fill="#c2deff"/>
        <path transform="translate(244.22 258.54)" d="m3.23 186.52c-0.69-2.12-3-3.84-5.35-3a12.27 12.27 0 0 1-5.59 0.83 4.38 4.38 0 0 0-4.35 4.35 4.44 4.44 0 0 0 4.35 4.3 21 21 0 0 0 7.9-1.14c2.14-0.75 3.81-3 3.04-5.34z" fill="#c2deff"/>
        <path transform="translate(244.22 258.54)" d="m138 197.81h-13c-5.59 0-5.6 8.69 0 8.69h13c5.61 0 5.62-8.69 0-8.69z" fill="#c2deff"/>
        <path transform="translate(244.22 258.54)" d="M-94-115.82c-3-4.67-10.55-.32-7.5,4.39,1.28,2,1.51,5-1.07,6.06-1.8.76-4.4-.44-4-2.71a4.46,4.46,0,0,0-3-5.34c-2.1-.58-4.92.71-5.34,3-1.47,8.18,5.52,15.8,14,13.59S-89.48-108.79-94-115.82Z" fill="#f0f8ff"/>
        <path transform="translate(244.22 258.54)" d="m-59.53-115.57c-1.41-1.87-3.76-2.84-6-1.56-1.84 1.08-3 4.06-1.55 5.95s3.69 4.17 0.63 5.58a5.9 5.9 0 0 1-3.55 0.6h-0.18c3.45-3.91-2.5-9.68-6.4-5.86a8.32 8.32 0 0 0-1.11 10.28c2.36 4 7.17 4.92 11.4 4.09 3.89-0.77 7.87-3.08 9.51-6.83 1.89-4.44-0.11-8.68-2.75-12.25z" fill="#f0f8ff"/>
        <path transform="translate(244.22 258.54)" d="M-26.49-115.82c-1.85-1.45-4.34-1.8-6.14,0-1.5,1.5-1.86,4.69,0,6.14a2,2,0,0,1,.88,2.61c-.26.79-1.49,2.78-2.41,2.74-2.58-.13-1.78-5.88-1.65-7.2.21-2.34-2.16-4.34-4.35-4.34a4.43,4.43,0,0,0-4.34,4.34c-.38,4.16-.12,8.52,2.61,11.9s6.82,4.86,10.86,3.35C-23.63-99-19.53-110.38-26.49-115.82Z" fill="#f0f8ff"/>
        <path transform="translate(244.22 258.54)" d="M115.44,192.35c-3-1-6.33.15-9.56.77-3.58-.17-7.17-.92-10.76-1.18a30.54,30.54,0,0,0-7,.24,3.65,3.65,0,0,0-1.84.37,18.4,18.4,0,0,0-6.5,2.92c-4.49,3.24-.16,10.78,4.38,7.5a12.42,12.42,0,0,1,4.67-2.05c4.23.44,8.47,1,12.72,1.18a35.1,35.1,0,0,0,6.15-.27l.19,0a25.3,25.3,0,0,0,7.51-1.07A4.39,4.39,0,0,0,115.44,192.35Z" fill="#f0f8ff"/>
        <path transform="translate(244.22 258.54)" d="M54.13,180.32,29,181.48c-3.42.16-7.1,0-10.4,1-3.46,1.08-6.11,3.43-8.62,6-.13.14-.25.27-.36.41-2.56-.2-5.1-.43-7.61-.67-5.56-.52-5.53,8.17,0,8.69,18.43,1.73,38.52,2.93,54.35-8.47C59.54,186.1,58.81,180.11,54.13,180.32Z" fill="#f0f8ff"/>
        <path transform="translate(244.22 258.54)" d="M372.07,196.12c-5.61-8.15-15.23-11.5-24.69-12.42-5.93-.57-11.9-.21-17.84-.51a70.17,70.17,0,0,1-28.39-7.87,8.61,8.61,0,0,0-3.84-6.26,37.13,37.13,0,0,0,1.07-6.63c.35-5.06-7.1-5.66-8.53-1.16-.16.5-.3,1-.45,1.5,0-.21,0-.43-.09-.65.05-.55.09-1.11.1-1.67a4.94,4.94,0,0,0,0-.68c.29-2.16.59-4.32.88-6.48.7-5.13-6.61-7.64-8.18-3.07-.73-2.23-1.42-4.49-2.08-6.75a26,26,0,0,0,.76-8.05,4.8,4.8,0,0,0-4-4.19q3.09-25.56,8.23-50.82a4.39,4.39,0,0,0-3.18-5.23l9.3-48.77A10.3,10.3,0,0,0,297.34,33c5.18,1.93,11.78.71,17.17-.86a10.93,10.93,0,0,0,2.82-.9,54.35,54.35,0,0,0,15.93-8.63,26.75,26.75,0,0,0,5.53-1.17c5.82-1.95,8-7.34,7.79-13.13l-.06-1.18a53.14,53.14,0,0,0,5-37.47,21.71,21.71,0,0,0,11.7-19.36C363-60.57,354.32-69.83,344-72.11a101.68,101.68,0,0,0-9.63-8.2,3.56,3.56,0,0,0-1.34-3.3q-16.45-13.74-31.66-28.87a112.69,112.69,0,0,1-6.88-10.13A117.69,117.69,0,0,1,288-134.84c-1.73-3.8-3.25-7.77-6.17-10.86a14.75,14.75,0,0,0-10.39-4.61c.93-2.49.43-4.85-2.34-6.86-3.29-2.4-7-.68-10.08,1.15-4.33,2.59-8.61,5.26-12.91,7.89L221-132.72c-5.91,3.61-15.88,7.51-17.11,15.3,0,.16,0,.31,0,.47l-.15.13c-.85.84-1.66,1.71-2.45,2.6a78.5,78.5,0,0,0,2.48-23.27,4.69,4.69,0,0,0-6.15-4,4.65,4.65,0,0,0-1.69-5.48c-.58-2.54-3.94-3.5-6.29-2.44a4,4,0,0,0-1.63-.58,283.48,283.48,0,0,0-28.59-2.59,3.7,3.7,0,0,0-1.38-.2l-1.53.08c-11-.4-22-.35-33-.18a4.76,4.76,0,0,0-4.34-4.46L83.38-158a3.54,3.54,0,0,0-3.94-2.43c-.67.05-1.34.11-2,.19a133.55,133.55,0,0,0-33.26-7.15,68,68,0,0,0-11.24-.51c-5.57.21-5.62,8.67,0,8.69q3.45,0,6.89.21l-1.12.37a4.81,4.81,0,0,0-1.78,1.1A259.27,259.27,0,0,0-29.32-163l2.3-.2c5.52-.5,5.57-9.19,0-8.69l-4.21.38q.21-5.47.73-10.93c.55-5.56-8.14-5.52-8.68,0-.39,3.9-.63,7.8-.77,11.72l-8.31.75c-5.17.46-5.54,8.13-1,8.67q-7.57.94-15.1,2.32a3.56,3.56,0,0,0-2.83,2.12q-4.48.38-9,.9-10.42,1.23-20.7,3.3l-6.92.1a4,4,0,0,0-3.71,2.31c-2.57.65-5.14,1.33-7.69,2.07a4,4,0,0,0-2.73,2.37q-6.69.53-13.36,1.08a4.4,4.4,0,0,0-4,3.55A106.35,106.35,0,0,0-146.52-139a3.84,3.84,0,0,0-3,3.39c-1.94-.12-4.27,1.13-4.55,3.16a116.49,116.49,0,0,0-.94,16.12c-.36,3.55-.37,7.18-.41,10.7a3.86,3.86,0,0,0-3.07,3l-7,27.3c-1.31,5.1-2.79,10.22-3.35,15.4-.91.19-1.81.36-2.72.51q0-4.57,0-9.14c0-5.59-8.69-5.6-8.68,0,0,3.33,0,6.67-.07,10A70.07,70.07,0,0,1-192-59.13c-2.34-.31-4.32,2.22-4.34,4.35,0,2.6,2,4,4.34,4.34a72.43,72.43,0,0,0,11.57.59c0,1.16,0,2.32-.09,3.48-.16,5.59,8.53,5.59,8.69,0,0-1.41.07-2.82.11-4.23,1-.15,2-.31,3-.5.09.55.19,1.09.31,1.64a3.91,3.91,0,0,0,1.69,2.39,4,4,0,0,0-1.49,3.36c.27,21.19-3.91,42-9.29,62.35-2.48,9.4-5.23,18-10.75,26.11-2.49,3.64-5.08,7.19-7.34,10.91-.2.19-.38.39-.57.59a4.45,4.45,0,0,0-3.8,3,312.86,312.86,0,0,0-9.44,36,4.51,4.51,0,0,0,5.36,5.32,4.56,4.56,0,0,0,3.62,4.9c-1,13.45-1.46,26.94-2,40.41a4.34,4.34,0,0,0,.47,2.25q-.47,10.78-.37,21.59c-.29-.12-.59-.23-.91-.33a4.34,4.34,0,0,0-4.22,1.11q-1.89,1.9-3.67,3.9a4.38,4.38,0,0,0-2.33,1.76l-5.16,7.41c-3.57,4.77-6.9,9.72-10.21,14.68a4,4,0,0,0-.74,2.18c-3.85.34-7.7.82-11.52,1.42-5.51.88-3.17,9.25,2.31,8.38a135.42,135.42,0,0,1,19.7-1.66c5.78-.07,12,1.17,17.68.19a13.05,13.05,0,0,0,1.89-.47,5.66,5.66,0,0,0,1.35,1.14,5.56,5.56,0,0,0,6.08-.43,4.42,4.42,0,0,0,6.87-3.48,309.71,309.71,0,0,0-.77-39.14q-.34-18-.7-35.94s0,0,0,0l.69-24.22a3.83,3.83,0,0,0,1.78-2.62A43.51,43.51,0,0,0-183.3,90a4.67,4.67,0,0,0-1.46-3,146.4,146.4,0,0,1,1.68-22.12,4.46,4.46,0,0,0-.71-3.27l.08-.1c5.92-4.86,13.54-6.34,21.26-6.7,3.51,1.89,8.6,1.37,12.29,0a5.58,5.58,0,0,0,5.52,3.77c4.85,0,6.73-4.61,5.63-8.19a5.49,5.49,0,0,0,0-4c-.27-.8-.5-1.59-.69-2.38l.18-.48c2.56-7.58-.65-15.44-.44-23.14a4,4,0,0,0-.82-2.65l-.06-.69c2-24.58-.56-49.23-.64-73.84a3.51,3.51,0,0,0,2.77-4c-.88-9.07-1.47-18.17-1.72-27.28,0-2.38-.06-4.75-.14-7.12,0-1.72,0-3.43,0-5.14q.08-9.9.74-19.78c.25-3.66-.1-9.71,3.37-12,.81-.14,1.62-.25,2.44-.36a3.78,3.78,0,0,0,3.71,2.1l66.54-2.1a4.63,4.63,0,0,0,1.93.52q23,1.14,46.05.1a3.66,3.66,0,0,0,.5.12c16.56,3.15,32.94-.09,49.43-1.63,30.76,1.47,61.43,4.31,92.24,5.21,18,.53,36,.64,54,.21a4,4,0,0,0,3.3-1.65,142.68,142.68,0,0,0-.06,24.37,4.75,4.75,0,0,0,.53,1.86C175.9-53.37,182-2.59,183.12,47.88c.15,6.9-.75,17.1,2.48,24-2.3,2.65-1.09,7.31,3,7.32h1.15a6.41,6.41,0,0,0,3.34.26,3.38,3.38,0,0,0,1.09-.44,7.47,7.47,0,0,0,2.19.17,4.28,4.28,0,0,0,3.54-2,24.09,24.09,0,0,1,1.23,6.49L201,92.41a4,4,0,0,0,.94,2.86s0,.1,0,.15q-.78,29.86-3.37,59.66a3.79,3.79,0,0,0,.68,2.66c-1.14-.08-2.28-.25-2.58-.29a15.1,15.1,0,0,0-5.15.07c-4.33,1-6.09,4.26-6.56,8.4-1.19,10.57-2,21.2-2.95,31.79-.51,5.56,8.18,5.52,8.69,0l.15-1.61c1.83,1.16,4.61.41,6-1.5l.61.05c7.47,5.55,18.91,5.32,27.6,2.72a124.45,124.45,0,0,0,18.8-.53,4.61,4.61,0,0,0,2.53-1l1.55-.15c1.85,1.27,4.81,1.19,6.21-.6l6-.57h.44a19,19,0,0,0,9.69,4.24,3.65,3.65,0,0,0,3.92-2.69c9.61,2.1,20.16,2,29.73,1.05a4.48,4.48,0,0,0,1.88-.6q16,1.59,32.08,1.62c6,0,11.9-.32,17.86-.43,1.74,0,3.86-.11,5.46.66,1.92.93,1.22,2.63,1.63,4.52.89,4.13,5.64,7.52,9.73,5.13C377.12,205.32,374.37,199.46,372.07,196.12ZM280.42-48.35c-.16.18-.31.38-.47.57a10,10,0,0,0,0-2.38,3.2,3.2,0,0,1,2.33-.13l.12,0A12.4,12.4,0,0,0,280.42-48.35ZM327-45.81a6.13,6.13,0,0,1,.94,4.37,7,7,0,0,1-1.07-1A16.3,16.3,0,0,0,327-45.81Zm4.2,14a9.41,9.41,0,0,0,1.92-.41A14.73,14.73,0,0,0,335-33a8.68,8.68,0,0,0,3.49,1.8,4.9,4.9,0,0,0,1.17,2.07c-.1.43-.19.86-.28,1.28a101.82,101.82,0,0,0-2.46,21.8,105.83,105.83,0,0,0,.65,11.12v0A42.73,42.73,0,0,1,330,14H328.5a75.49,75.49,0,0,1-10.63-.44,64.92,64.92,0,0,1-10.6-2.08c-.32-.1-.63-.19-.9-.29a25.72,25.72,0,0,1-1.92-3.49q-.26-9.41-1.29-18.77c0-6.62.14-13.24.21-19.85h0a12.27,12.27,0,0,0,4.86.09,14.08,14.08,0,0,0,9.68-.23A14.08,14.08,0,0,0,331.24-31.85Zm-49.09-77.54c.64.7,1.29,1.38,2,2,11.2,14.48,24.57,27.38,38.19,39.7a185.17,185.17,0,0,0-36.67,1.59,42.82,42.82,0,0,0-5.56-.17,152.11,152.11,0,0,0,.74-27.66l1-1.81a4.66,4.66,0,0,0-1.67-5.91c-.13-1.1-.27-2.2-.43-3.31ZM193.79,166.93l-.39,1.16c.09-.87.2-2.37,0-2.12.14-.16.51-.2,1-.19A5.36,5.36,0,0,0,193.79,166.93ZM215.93-92.69c1.44-6.8,5.94-12.72,10.95-17.93a4.29,4.29,0,0,0,3.05-1.19c2.25-2.06,4.56-4.06,6.9-6l2.42-1.16c1.59-.76,4.68-2.94,6.64-2.78.18,0,.76.09.76-.07.38.66,0,2.64,0,3.27-.15,2.61-.31,5.22-.46,7.82l-.11,1.82a16.88,16.88,0,0,0-2.93,8.43,3.66,3.66,0,0,0,1,2.78c-.48,1-.94,2.08-1.38,3.14a3.46,3.46,0,0,0-.14,2.57c-3,7.22-8,14.91-16.53,15.15C217.78-76.62,214.46-85.78,215.93-92.69Zm-7.62-11a4.82,4.82,0,0,0,1.7,1.86A33,33,0,0,0,208.18-97a24,24,0,0,0,.11-3,4.19,4.19,0,0,0-1.29-2.85C207.43-103.21,207.87-103.45,208.31-103.66Zm-1.12,11.23a25.29,25.29,0,0,0,.13,7.52A17,17,0,0,1,206.23-90,21.3,21.3,0,0,0,207.19-92.43ZM195-138.7l.27-.22a2.29,2.29,0,0,0-.08.28l-.12.57-.17.07C194.9-138.24,194.93-138.47,195-138.7Zm40.29,322.12c-1.13.09-2.26.16-3.39.2a21,21,0,0,0,3.58-1.54A12.7,12.7,0,0,0,235.26,183.42ZM239,41.1A35.37,35.37,0,0,0,236,46.58c-1.54.05-3.07.08-4.61.07.17-2.53-.14-5-2.19-6.54-.21-.15-.42-.28-.63-.41,0-2.31,0-4.61-.09-6.92a4.12,4.12,0,0,0-3.21-4c.43-2.8-1.77-6.07-5.31-5-9.38,2.74-12.52,11.87-14.18,20.57a4.61,4.61,0,0,0,1.89,4.7,3.55,3.55,0,0,0,3,4.66c2.87.44,5.74.79,8.61,1.07-.07.89-.14,1.79-.22,2.69a3.62,3.62,0,0,0,1,3.06c-.08.28-.15.55-.23.82-1.61,5.37,6.77,7.66,8.37,2.31a74.1,74.1,0,0,0,2-8.27c1.08,0,2.17,0,3.25,0-.19,1.16-.35,2.33-.44,3.52a3.58,3.58,0,0,0,2.67,4l-2.58,7.88c-.82,2.48,1,4.59,3.14,5.28q-1.31,7.09-2.75,14.16-2.17,10-4.37,19.92a4.47,4.47,0,0,0,4.43,5.42c-.93,4.71-1.82,9.43-2.64,14.16-.77,4.4,4.47,6.81,7.08,4.64-.46,3.25-.92,6.51-1.39,9.76q-1.41,9.15-2.81,18.3a4,4,0,0,0-2.33,1.19,34.08,34.08,0,0,1-10.76,7.94,6.71,6.71,0,0,1-.77.35c-.14-1.08-.1-2.39-.18-3.33q-.35-4.17-.7-8.32c-.31-3.71-4.31-4.95-6.78-3.68-.18-3.59,0-7.2.05-10.73a223.68,223.68,0,0,1,2.1-25.47c2.18-15.34,6.29-31.17-2.51-45.29a37,37,0,0,0-6-7.36c-2.62-2.49-5.8-4.24-8.49-6.62a10.1,10.1,0,0,1-3.26-6,3.93,3.93,0,0,0,2.94-4c-.06-15.87-.07-31.92,1.72-47.68a8,8,0,0,0,1.85,2.48c4.17,3.75,11.78,3.37,17,3.53,4.57.14,9.82.06,14.89.7,5.62,3.95,7.37,9.33,8.29,16q.9,6.48,1.63,13A4.4,4.4,0,0,0,239,41.1ZM248.3-18q-.09,7.12-.19,14.23L234.29-5.55A36.84,36.84,0,0,0,221-7.27a4.08,4.08,0,0,0-4.18,4.1h-1c-2.22,0-6.22.46-7.92-1.44A3.79,3.79,0,0,0,208-5.74L207-32.33a48.34,48.34,0,0,1,22.45-7.61,46.86,46.86,0,0,1,19.06,2.36A112.44,112.44,0,0,0,248.3-18Zm14-24.16a3.8,3.8,0,0,0-.47.43l.1-.42.46-.65Zm.54-75.83a5,5,0,0,0-.92,1c-.63.91-1.28,1.8-1.94,2.69-.13-.13-.27-.25-.41-.37q1.9-3.12,4.08-6C263.36-119.79,263.1-118.88,262.82-118ZM273-122c.11-.4.2-.79.3-1.19.26.43.51.86.77,1.28A4.79,4.79,0,0,0,273-122Zm2,305.35a1.55,1.55,0,0,1,0-.22c.44-.32.9-.62,1.36-.92,0,.13.06.26.1.39a5.09,5.09,0,0,0,.41,1.06Zm20.53,3.18a19.75,19.75,0,0,0,3.12-2.93c.89.45,1.8.9,2.73,1.32a70.51,70.51,0,0,0,8.57,3.25C305.09,187.78,300.29,187.22,295.5,186.57Z" fill="#f0f8ff"/>
        <path transform="translate(244.22 258.54)" d="m81.59-215.83c0.89-2 2.51-2 4.14-1.37-0.1 1.9-0.15 3.81-0.16 5.69-2.25-0.41-5.28-1.42-3.98-4.32z" fill="#dceaf9"/>
        <path transform="translate(244.22 258.54)" d="m-216.58 29.58a5.4 5.4 0 0 1-4 4.26c0-2.81 0.06-5.62 0.14-8.42h0.35c2.45 0.31 3.88 1.44 3.51 4.16z" fill="#dceaf9"/>
        <rect x="454.25" y="297.13" width="19.78" height="4.34" fill="#27477c"/>
        <rect x="461.97" y="289.41" width="4.34" height="19.78" fill="#27477c"/>
        <rect x="441.23" y="95.62" width="19.78" height="4.34" fill="#27477c"/>
        <rect x="448.95" y="87.9" width="4.34" height="19.78" fill="#27477c"/>
        <rect x="194.87" y="81.18" width="19.78" height="4.34" fill="#27477c"/>
        <rect x="202.59" y="73.46" width="4.34" height="19.78" fill="#27477c"/>
        <rect x="54.47" y="195.52" width="19.78" height="4.34" fill="#27477c"/>
        <rect x="62.19" y="187.8" width="4.34" height="19.78" fill="#27477c"/>
        <rect x="477.33" y="422.85" width="19.78" height="4.34" fill="#27477c"/>
        <rect x="485.05" y="415.13" width="4.34" height="19.78" fill="#27477c"/>
        <rect x="6.32" y="467.36" width="494.84" height="4.34" fill="#27477c"/>
        <path transform="translate(244.22 258.54)" d="M182.53,213.16h-321l-2.17-2.17V-130.43l2.17-2.17h321l2.17,2.17V211Zm-318.81-4.34H180.36V-128.26H-136.28Z" fill="#27477c"/>
        <rect x="61.1" y="315.9" width="108.38" height="199.75" rx="12.22" fill="#fff"/>
        <path transform="translate(244.22 258.54)" d="M-83.58,259.28h-90.69a11,11,0,0,1-11-11V66.2a11,11,0,0,1,11-11h90.69a11,11,0,0,1,11,11V248.27A11,11,0,0,1-83.58,259.28ZM-174.27,59.53a6.67,6.67,0,0,0-6.67,6.67V248.27a6.68,6.68,0,0,0,6.67,6.67h90.69a6.68,6.68,0,0,0,6.67-6.67V66.2a6.67,6.67,0,0,0-6.67-6.67Z" fill="#27477c"/>
        <polygon points="59.39 392.67 55.84 388.13 55.38 386.79 55.38 370.77 55.84 369.43 59.39 364.9 63.27 366.24 63.27 391.33" fill="#27477c"/>
        <polygon points="171.19 392.67 167.31 391.33 167.31 366.24 171.19 364.9 174.74 369.43 175.2 370.77 175.2 386.79 174.74 388.13" fill="#27477c"/>
        <polygon points="59.39 418.36 55.84 413.83 55.38 412.49 55.38 396.47 55.84 395.13 59.39 390.59 63.27 391.93 63.27 417.02" fill="#27477c"/>
        <rect x="426.59" width="4.34" height="10.62" fill="#27477c"/>
        <rect transform="translate(467.84 305.38) rotate(-45)" x="166.18" y="-251.84" width="4.34" height="10.62" fill="#27477c"/>
        <rect x="400.55" y="26.04" width="10.62" height="4.34" fill="#27477c"/>
        <rect transform="translate(444.95 314.86) rotate(-45)" x="163.04" y="-216.32" width="10.62" height="4.34" fill="#27477c"/>
        <rect x="426.59" y="45.79" width="4.34" height="10.62" fill="#27477c"/>
        <rect transform="translate(454.43 337.76) rotate(-45)" x="198.56" y="-219.46" width="4.34" height="10.62" fill="#27477c"/>
        <rect x="446.34" y="26.04" width="10.62" height="4.34" fill="#27477c"/>
        <rect transform="translate(477.29 328.28) rotate(-44.99)" x="195.42" y="-248.7" width="10.62" height="4.34" fill="#27477c"/>
        <rect x="64.36" y="29.1" width="4.34" height="10.62" fill="#27477c"/>
        <rect transform="translate(341.17 57.77) rotate(-45)" x="-196.05" y="-222.73" width="4.34" height="10.62" fill="#27477c"/>
        <rect x="38.32" y="55.14" width="10.62" height="4.34" fill="#27477c"/>
        <rect transform="translate(318.27 67.26) rotate(-45)" x="-199.19" y="-187.21" width="10.62" height="4.34" fill="#27477c"/>
        <rect x="64.36" y="74.9" width="4.34" height="10.62" fill="#27477c"/>
        <rect transform="translate(327.76 90.15) rotate(-45)" x="-163.67" y="-190.35" width="4.34" height="10.62" fill="#27477c"/>
        <rect x="84.12" y="55.14" width="10.62" height="4.34" fill="#27477c"/>
        <rect transform="translate(350.65 80.67) rotate(-45)" x="-166.81" y="-219.59" width="10.62" height="4.34" fill="#27477c"/>
        <rect x="453.29" y="222.21" width="39.09" height="31.61" fill="#27477c"/>
        <path transform="translate(244.22 258.54)" d="M248.16-2.55H209.07L206.9-4.72V-36.33l2.17-2.17h39.09l2.17,2.17V-4.72ZM211.24-6.89H246V-34.16H211.24Z" fill="#27477c"/>
        <path transform="translate(244.22 258.54)" d="M263.72-128.26h-5.06l-2.17-2.17v-14.12l2.17-2.17h5.06l2.18,2.17v14.12Zm-2.89-4.34h.72v-9.77h-.72Z" fill="#27477c"/>
        <rect x="464.27" y="230.66" width="17.13" height="9.17" fill="#fff"/>
        <path transform="translate(244.22 258.54)" d="M237.18-16.55H220.05l-2.17-2.17v-9.17l2.17-2.17h17.13l2.17,2.17v9.17Zm-15-4.34H235v-4.82H222.22Z" fill="#27477c"/>
        <rect x="395.94" y="456.74" width="107.99" height="12.79" fill="#27477c"/>
        <path transform="translate(244.22 258.54)" d="M259.72,213.33h-108L150.51,211V198.2l1.22-2.35h108l1.22,2.35V211ZM153,208.64H258.5v-8.1H153Z" fill="#27477c"/>
        <rect x="105.77" y="497.51" width="19.05" height="9.75" fill="#27477c"/>
        <path transform="translate(244.22 258.54)" d="M-119.4,250.89h-19l-2.17-2.17V239l2.17-2.17h19l2.17,2.17v9.75Zm-16.88-4.34h14.71v-5.41h-14.71Z" fill="#27477c"/>
        <rect x="90.29" y="326.99" width="24.26" height="4.34" fill="#27477c"/>
        <rect x="120.56" y="326.99" width="4.87" height="4.34" fill="#27477c"/>
        <rect x="130.43" y="325.76" width="9.86" height="6.8" fill="#27477c"/>
        <rect x="238.3" y="455.65" width="49.22" height="49.22" fill="#c2deff"/>
        <path transform="translate(244.22 258.54)" d="m43.31 248.51h-49.22a2.18 2.18 0 0 1-2.17-2.18v-49.22a2.17 2.17 0 0 1 2.17-2.17h49.22a2.17 2.17 0 0 1 2.17 2.17v49.22a2.18 2.18 0 0 1-2.17 2.18zm-47.05-4.35h44.88v-44.88h-44.88z" fill="#27477c"/>
        <polygon points="309.08 439.89 287.52 455.65 287.52 504.88 309.08 489.12" fill="#27477c"/>
        <path transform="translate(244.22 258.54)" d="m43.31 248.51a2.12 2.12 0 0 1-1-0.24 2.17 2.17 0 0 1-1.19-1.94v-49.22a2.17 2.17 0 0 1 0.89-1.75l21.57-15.76a2.17 2.17 0 0 1 3.42 1.75v49.22a2.17 2.17 0 0 1-0.89 1.76l-21.52 15.76a2.23 2.23 0 0 1-1.28 0.42zm2.17-50.3v43.85l17.21-12.59v-43.84z" fill="#27477c"/>
        <path transform="translate(244.22 258.54)" d="M43.31,199.28H-5.91A2.18,2.18,0,0,1-8,197.79a2.17,2.17,0,0,1,.79-2.43L14.36,179.6a2.18,2.18,0,0,1,1.28-.42H64.86a2.17,2.17,0,0,1,1.28,3.92L44.59,198.87A2.17,2.17,0,0,1,43.31,199.28ZM.74,194.94H42.6l15.61-11.42H16.35Z" fill="#27477c"/>
        <path transform="translate(244.22 258.54)" d="M-8.64,268.14H-42.15A2.18,2.18,0,0,1-44.32,266V232.45a2.17,2.17,0,0,1,2.17-2.17H-8.64a2.17,2.17,0,0,1,2.17,2.17V266A2.18,2.18,0,0,1-8.64,268.14ZM-40,263.79h29.17V234.63H-40Z" fill="#27477c"/>
        <polygon points="250.25 480.26 235.58 491 235.58 524.51 250.25 513.78" fill="#27477c"/>
        <path transform="translate(244.22 258.54)" d="M-8.64,268.14a2.12,2.12,0,0,1-1-.24A2.17,2.17,0,0,1-10.81,266V232.45a2.17,2.17,0,0,1,.89-1.75L4.75,220a2.18,2.18,0,0,1,3.46,1.75v33.51A2.2,2.2,0,0,1,7.32,257L-7.36,267.72A2.23,2.23,0,0,1-8.64,268.14Zm2.17-34.58v28.13l10.33-7.56V226Z" fill="#27477c"/>
        <polygon points="250.25 480.26 216.74 480.26 202.07 491 235.58 491" fill="#27477c"/>
        <path transform="translate(244.22 258.54)" d="M-8.64,234.63H-42.15a2.17,2.17,0,0,1-2.06-1.5,2.16,2.16,0,0,1,.78-2.43L-28.76,220a2.18,2.18,0,0,1,1.28-.42H6a2.18,2.18,0,0,1,1.29,3.93L-7.36,234.21A2.18,2.18,0,0,1-8.64,234.63Zm-26.86-4.35H-9.35l8.74-6.38H-26.77Z" fill="#27477c"/>
        <rect x="317.16" y="460.99" width="33.51" height="33.51" fill="#fff"/>
        <path transform="translate(244.22 258.54)" d="m106.45 238.13h-33.51a2.17 2.17 0 0 1-2.17-2.13v-33.55a2.17 2.17 0 0 1 2.17-2.17h33.51a2.18 2.18 0 0 1 2.18 2.17v33.55a2.18 2.18 0 0 1-2.18 2.13zm-31.33-4.34h29.16v-29.17h-29.16z" fill="#27477c"/>
        <polygon points="365.34 450.26 350.67 461 350.67 494.5 365.34 483.77" fill="#27477c"/>
        <path transform="translate(244.22 258.54)" d="M106.45,238.13a2.14,2.14,0,0,1-1-.23,2.17,2.17,0,0,1-1.19-1.94V202.45a2.17,2.17,0,0,1,.89-1.75L119.84,190a2.19,2.19,0,0,1,2.27-.18,2.16,2.16,0,0,1,1.19,1.93v33.51a2.17,2.17,0,0,1-.89,1.76l-14.67,10.73A2.22,2.22,0,0,1,106.45,238.13Zm2.18-34.57v28.13L119,224.13V196Z" fill="#27477c"/>
        <path transform="translate(244.22 258.54)" d="m106.45 204.62h-33.51a2.17 2.17 0 0 1-1.28-3.92l14.67-10.7a2.23 2.23 0 0 1 1.29-0.42h33.51a2.18 2.18 0 0 1 1.28 3.93l-14.67 10.73a2.22 2.22 0 0 1-1.29 0.38zm-26.86-4.34h26.15l8.74-6.39h-26.15z" fill="#27477c"/>
        <circle transform="translate(113.95 436.73) rotate(-45)" cx="149.96" cy="246.33" r="15.8" fill="#27477c"/>
        <path transform="translate(244.22 258.54)" d="m150 264.31a18 18 0 1 1 18-18 18 18 0 0 1-18 18zm0-31.61a13.64 13.64 0 1 0 13.63 13.63 13.65 13.65 0 0 0-13.63-13.63z" fill="#27477c"/>
        <circle cx="389.11" cy="498.96" r="5.07" fill="#fff"/>
        <path transform="translate(244.22 258.54)" d="m182.53-86.28h-321l-2.17-2.17v-42l2.17-2.17h321l2.17 2.17v42zm-318.81-4.34h316.64v-37.64h-316.64z" fill="#27477c"/>
        <path transform="translate(244.22 258.54)" d="m-100.34-109.44a5 5 0 0 1-5 5 5 5 0 0 1-5.05-5 5 5 0 0 1 5.05-5 5 5 0 0 1 5 5z" fill="#27477c"/>
        <path transform="translate(244.22 258.54)" d="m-105.38-102.22a7.23 7.23 0 0 1-7.22-7.22 7.23 7.23 0 0 1 7.22-7.22 7.22 7.22 0 0 1 7.21 7.22 7.22 7.22 0 0 1-7.21 7.22zm0-10.09a2.88 2.88 0 0 0-2.88 2.87 2.88 2.88 0 0 0 2.88 2.88 2.88 2.88 0 0 0 2.87-2.88 2.88 2.88 0 0 0-2.87-2.87z" fill="#27477c"/>
        <path transform="translate(244.22 258.54)" d="m-64.85-109.44a5 5 0 0 1-5.05 5 5 5 0 0 1-5-5 5 5 0 0 1 5-5 5 5 0 0 1 5.05 5z" fill="#27477c"/>
        <path transform="translate(244.22 258.54)" d="m-69.9-102.22a7.22 7.22 0 0 1-7.21-7.22 7.22 7.22 0 0 1 7.21-7.22 7.23 7.23 0 0 1 7.22 7.22 7.23 7.23 0 0 1-7.22 7.22zm0-10.09a2.88 2.88 0 0 0-2.87 2.87 2.88 2.88 0 0 0 2.87 2.88 2.88 2.88 0 0 0 2.9-2.88 2.88 2.88 0 0 0-2.9-2.87z" fill="#27477c"/>
        <path transform="translate(244.22 258.54)" d="m-29.36-109.44a5 5 0 0 1-5 5 5 5 0 0 1-5-5 5 5 0 0 1 5-5 5 5 0 0 1 5 5z" fill="#27477c"/>
        <path transform="translate(244.22 258.54)" d="m-34.41-102.22a7.23 7.23 0 0 1-7.22-7.22 7.23 7.23 0 0 1 7.22-7.22 7.23 7.23 0 0 1 7.22 7.22 7.23 7.23 0 0 1-7.22 7.22zm0-10.09a2.88 2.88 0 0 0-2.87 2.87 2.88 2.88 0 0 0 2.87 2.88 2.88 2.88 0 0 0 2.88-2.88 2.88 2.88 0 0 0-2.88-2.87z" fill="#27477c"/>
        <rect x="212.68" y="170.09" width="4.34" height="299.43" fill="#27477c"/>
        <path transform="translate(244.22 258.54)" d="M-84.52,38.93A37,37,0,0,1-121.44,2,37,37,0,0,1-84.52-34.91,37,37,0,0,1-47.6,2,37,37,0,0,1-84.52,38.93Zm0-69.49A32.61,32.61,0,0,0-117.09,2,32.61,32.61,0,0,0-84.52,34.58,32.61,32.61,0,0,0-51.95,2,32.61,32.61,0,0,0-84.52-30.56Z" fill="#27477c"/>
        <path transform="translate(244.22 258.54)" d="M-65.76,18.43H-91.1l-2.18-2.17v-22l2.18-2.17h25.34l2.17,2.17v22Zm-23.17-4.34h21V-3.54h-21Z" fill="#27477c"/>
        <path transform="translate(244.22 258.54)" d="M-91.1,18.43h-13.6l-2.17-2.17v-22l2.17-2.17h13.6l2.17,2.17v22Zm-11.43-4.34h9.25V-3.54h-9.25Z" fill="#27477c"/>
        <path transform="translate(244.22 258.54)" d="M-66.54-8.64h-35.95l-2.17-2.2c.12-8.95,9.11-16.23,20-16.23h.32a22.62,22.62,0,0,1,14,4.93c3.83,3.12,6,7.25,5.94,11.34ZM-100-13h31A11.8,11.8,0,0,0-73-18.76a18.26,18.26,0,0,0-11.31-4h-.27C-92.21-22.72-98.6-18.52-100-13Z" fill="#27477c"/>
        <rect x="150.87" y="274.8" width="15.85" height="7.04" fill="#27477c"/>
        <path transform="translate(244.22 258.54)" d="m-77.49 25.47h-15.85l-2.17-2.17v-7l2.17-2.17h15.85l2.17 2.17v7zm-13.68-4.34h11.51v-2.7h-11.51z" fill="#27477c"/>
        <path transform="translate(244.22 258.54)" d="M-71.28-3.54H-96.83L-99-5.71v-5.1L-96.83-13h25.55l2.18,2.18v5.1Z" fill="#27477c"/>
        <rect x="159.77" y="258.89" width="4.34" height="5.79" fill="#27477c"/>
        <rect x="167.43" y="258.89" width="4.34" height="5.79" fill="#27477c"/>
        <polygon points="180.38 288.78 175.69 284.01 142.47 284.01 137.53 287.86 134.86 284.43 140.4 280.12 141.73 279.67 176.59 279.67 178.14 280.32 183.47 285.73" fill="#27477c"/>
        <path transform="translate(244.22 258.54)" d="m-29.36-51.29h-109.09l-2.17-2.17v-35l2.17-2.17h109.09l2.17 2.17v35zm-106.92-4.34h104.75v-30.65h-104.75z" fill="#27477c"/>
        <path transform="translate(244.22 258.54)" d="M166-60.22H-10.62l-2.17-2.17V-76.14l2.17-2.17H166l2.17,2.17v13.75ZM-8.45-64.56H163.87V-74H-8.45Z" fill="#27477c"/>
        <rect x="233.6" y="220.04" width="52.48" height="4.34" fill="#27477c"/>
        <rect x="282.82" y="210.27" width="13.75" height="4.34" fill="#27477c"/>
        <rect x="317.57" y="242.48" width="18.46" height="4.34" fill="#27477c"/>
        <rect x="286.08" y="235.84" width="17.95" height="4.34" fill="#27477c"/>
        <rect x="233.6" y="251.65" width="23.53" height="4.34" fill="#27477c"/>
        <rect x="286.08" y="261.65" width="33.3" height="4.34" fill="#27477c"/>
        <rect x="255.31" y="279.67" width="19.13" height="4.34" fill="#27477c"/>
        <rect x="306.56" y="294.96" width="29.46" height="4.34" fill="#27477c"/>
        <rect x="282.82" y="294.96" width="13.75" height="4.34" fill="#27477c"/>
        <rect x="302.73" y="279.67" width="9.77" height="4.34" fill="#27477c"/>
        <rect x="249.52" y="261.65" width="16.73" height="4.34" fill="#27477c"/>
        <rect x="287.53" y="250.66" width="9.05" height="4.34" fill="#27477c"/>
        <rect x="245.36" y="235.84" width="20.9" height="4.34" fill="#27477c"/>
        <rect x="233.6" y="279.67" width="11.76" height="4.34" fill="#27477c"/>
        <rect x="236.49" y="294.96" width="23.34" height="4.34" fill="#27477c"/>
        <rect x="236.49" y="323.59" width="28.38" height="4.34" fill="#27477c"/>
        <rect x="296.57" y="311.25" width="13.39" height="4.34" fill="#27477c"/>
        <rect x="340.35" y="267.09" width="11.77" height="4.34" fill="#27477c"/>
        <rect x="388.14" y="262.51" width="13.03" height="4.34" fill="#27477c"/>
        <rect x="386.56" y="242.48" width="21.49" height="4.34" fill="#27477c"/>
        <rect x="397.07" y="286.63" width="10.98" height="4.34" fill="#27477c"/>
        <rect x="368.96" y="277.95" width="10.07" height="4.34" fill="#27477c"/>
        <rect x="389.95" y="307.99" width="18.1" height="4.34" fill="#27477c"/>
        <rect x="376.92" y="296.65" width="9.64" height="4.34" fill="#27477c"/>
        <rect x="249.52" y="344.9" width="13.39" height="4.34" fill="#27477c"/>
        <rect x="257.89" y="361.3" width="16.55" height="4.34" fill="#27477c"/>
        <rect x="233.6" y="359.38" width="11.76" height="4.34" fill="#27477c"/>
        <rect x="236.49" y="377.91" width="16.29" height="4.34" fill="#27477c"/>
        <rect x="256.22" y="398.47" width="13.57" height="4.34" fill="#27477c"/>
        <rect x="236.49" y="415.48" width="13.03" height="4.34" fill="#27477c"/>
        <rect x="346.24" y="425.86" width="15.85" height="4.34" fill="#27477c"/>
        <rect x="391.52" y="437.72" width="16.53" height="4.34" fill="#27477c"/>
        <rect x="365.34" y="454.57" width="18.7" height="4.34" fill="#27477c"/>
        <rect x="322.99" y="437.72" width="11.6" height="4.34" fill="#27477c"/>
        <rect x="287.53" y="425.86" width="16.5" height="4.34" fill="#27477c"/>
        <rect x="235.58" y="441.54" width="17.2" height="4.34" fill="#27477c"/>
        <rect x="434.47" y="488.82" width="46.93" height="4.34" fill="#27477c"/>
        <rect x="485.4" y="513.48" width="31.13" height="4.34" fill="#27477c"/>
        <rect x="434.47" y="522.33" width="26.78" height="4.34" fill="#27477c"/>
        <rect x="350.67" y="529.13" width="28.36" height="4.34" fill="#27477c"/>
        <rect x="274.44" y="529.13" width="17.61" height="4.34" fill="#27477c"/>
        <rect x="306.56" y="513.48" width="34.69" height="4.34" fill="#27477c"/>
        <rect x="158.8" y="541.43" width="39.69" height="4.34" fill="#27477c"/>
        <rect x="97.88" y="529.13" width="27.56" height="4.34" fill="#27477c"/>
        <rect x="160.64" y="513.48" width="19.4" height="4.34" fill="#27477c"/>
        <path transform="translate(244.22 258.54)" d="M-84.67,223c-.8-.51-.81-6.26-.9-7.26-.27-3.07-.43-6.15-.52-9.23-.15-5.58-8.84-5.6-8.68,0q.18,6.5.91,13a92.43,92.43,0,0,1-12.35-9c-5.14-4.49-9.34-10.67-15.34-14.05a4.29,4.29,0,0,0-1.94-.59c-1.9-2.83-4.8-4.46-8.19-5.57-3.86-1.26-7.31-1.8-9.69-5.45-5-7.67-3.44-17.88-7.07-26.16-1.88-4.27-4.9-7.8-7.26-11.78-2.65-4.46-3.28-9.37-3.75-14.45a5.06,5.06,0,0,0-2.58-3.75q.33-18.43,1.34-36.87a3.78,3.78,0,0,0-3.63-4.15c-.68-2.52-3.4-4.53-6.28-2.78-4.54,2.75-4.62,7.73-4.73,12.5-.15,6.5-.14,13,0,19.5.24,13.24.91,26.47,1.59,39.7a4.21,4.21,0,0,0,1.25,2.88,4.76,4.76,0,0,0-1.83,4.8,119.35,119.35,0,0,1,.93,19.27,4.06,4.06,0,0,0-1,2.74q-.36,15.53-.7,31.05a3.9,3.9,0,0,0,1.2,2.88,10.57,10.57,0,0,1-.07,1.89c-.16,1.07-.66,1.63-.92,2.7-1.24,5,3.84,7.8,8.07,6.89,2.69-.57,4.88-1.38,7.69-1.41s5.35.19,8,.35l16.77,1a3.67,3.67,0,0,0,3.79-2.18,7.29,7.29,0,0,0,1.15.31,3.62,3.62,0,0,0,1.85.85,84.39,84.39,0,0,0,31.76-.63c.54.2,1.08.42,1.61.67a4.35,4.35,0,0,0,3.71.08c1.2.2,2.42.34,3.65.43C-82.35,231.4-81.23,225.15-84.67,223Z" fill="#dceaf9"/>
        <path transform="translate(244.22 258.54)" d="M-83.07,232.75h-91.71l-2.17-2.17V83.89l2.17-2.17h91.71l2.17,2.17V230.58Zm-89.53-4.34h87.36V86.06H-172.6Z" fill="#27477c"/>
        <rect x="78.22" y="462.7" width="18.21" height="18" rx="5.95" fill="#27477c"/>
        <rect x="106.06" y="462.7" width="18.21" height="18" rx="5.95" fill="#27477c"/>
        <rect x="133.91" y="462.7" width="18.21" height="18" rx="5.95" fill="#27477c"/>
        <rect x="349.41" y="322.98" width="29.46" height="4.34" fill="#27477c"/>
        <rect x="325.67" y="322.98" width="13.75" height="4.34" fill="#27477c"/>
        <rect x="279.34" y="322.98" width="23.34" height="4.34" fill="#27477c"/>
        <rect x="419.77" y="324.67" width="9.64" height="4.34" fill="#27477c"/>
        <rect x="357.48" y="359.78" width="46.68" height="4.34" fill="#27477c"/>
        <rect x="288.96" y="357.86" width="33.18" height="4.34" fill="#27477c"/>
        <rect x="326.81" y="377.82" width="15.85" height="4.34" fill="#27477c"/>
        <rect x="268.1" y="377.82" width="16.5" height="4.34" fill="#27477c"/>
        <rect x="76.14" y="369.82" width="52.48" height="15.33" fill="#27477c"/>
        <rect x="79.1" y="395.82" width="16.55" height="4.34" fill="#27477c"/>
        <rect x="107.1" y="395.82" width="34.97" height="4.34" fill="#27477c"/>
        <rect x="101.67" y="412.82" width="19.13" height="4.34" fill="#27477c"/>
        <rect x="79.96" y="412.82" width="11.76" height="4.34" fill="#27477c"/>
        <rect x="79.14" y="430.33" width="24.02" height="15.33" fill="#27477c"/>
        <rect x="115.37" y="430.33" width="24.02" height="15.33" fill="#27477c"/>
        <rect x="309.04" y="397.82" width="46.68" height="4.34" fill="#27477c"/>
    </g>
</svg>
