<?xml version="1.0" encoding="UTF-8"?>
<svg data-name="Layer 1" viewBox="0 0 32 23.93" xmlns="http://www.w3.org/2000/svg">
  <defs>
    <style>.cls-1, .cls-2 {
      fill: #686868;
      }

      .cls-2 {
      fill-rule: evenodd;
      }</style>
  </defs>
  <path class="cls-1" d="M16,16V12.91a4.93,4.93,0,0,0,4.58-6.72,4.66,4.66,0,0,0-2.77-2.76A4.93,4.93,0,0,0,11.09,8H8A8,8,0,0,1,18.55.4a7.75,7.75,0,0,1,5.06,5.06A8,8,0,0,1,16,16Z"/>
  <polygon class="cls-2" points="16.01 12.93 12.91 12.93 12.91 9.83 12.91 9.83 16.01 9.83 16.01 9.83"/>
  <polygon class="cls-2" points="12.91 15.3 10.54 15.3 10.54 15.3 10.54 12.93 12.91 12.93"/>
  <path class="cls-2" d="m10.54 12.93h-2v-2h2z"/>
  <path class="cls-1" d="M2.76,19.16a2.56,2.56,0,0,0-1.49-.42H0v4H1.28a2.43,2.43,0,0,0,1.49-.44,1.69,1.69,0,0,0,.52-.65,2.6,2.6,0,0,0,0-1.9A1.44,1.44,0,0,0,2.76,19.16Zm-2,.26h.4a2.07,2.07,0,0,1,1.09.26,1.16,1.16,0,0,1,.47,1.06,1.23,1.23,0,0,1-.47,1.1h0a2,2,0,0,1-1.08.26H.74Z"/>
  <path class="cls-1" d="M4.35,18.69a.45.45,0,0,0-.32.12.42.42,0,0,0-.13.31.46.46,0,0,0,.13.32.44.44,0,0,0,.32.13.48.48,0,0,0,.32-.13.44.44,0,0,0,.12-.32.41.41,0,0,0-.12-.31A.47.47,0,0,0,4.35,18.69Z"/>
  <rect class="cls-1" x="3.99" y="19.93" width=".72" height="2.85"/>
  <path class="cls-1" d="M7.31,20.17a1.09,1.09,0,0,0-.72-.31,1.26,1.26,0,0,0-1,.41,1.42,1.42,0,0,0-.39,1,1.46,1.46,0,0,0,.38,1,1.34,1.34,0,0,0,1,.4,1.06,1.06,0,0,0,.71-.23v.06a.74.74,0,0,1-.19.55.69.69,0,0,1-.52.19.93.93,0,0,1-.79-.47l-.49.47v0a2.07,2.07,0,0,0,.48.43,1.51,1.51,0,0,0,.8.2,1.35,1.35,0,0,0,1-.39,1.42,1.42,0,0,0,.38-1V19.92H7.29v.25Zm-.19,1.68a.6.6,0,0,1-.49.21.62.62,0,0,1-.49-.21A.76.76,0,0,1,6,21.3a.82.82,0,0,1,.18-.56.59.59,0,0,1,.49-.21.62.62,0,0,1,.49.21.79.79,0,0,1,.19.56A.77.77,0,0,1,7.12,21.85Z"/>
  <rect class="cls-1" x="8.63" y="19.93" width=".72" height="2.85"/>
  <path class="cls-1" d="M9,18.69a.45.45,0,0,0-.32.12.42.42,0,0,0-.13.31.46.46,0,0,0,.13.32.44.44,0,0,0,.32.13.48.48,0,0,0,.32-.13.44.44,0,0,0,.12-.32.41.41,0,0,0-.12-.31A.45.45,0,0,0,9,18.69Z"/>
  <path class="cls-1" d="M10.91,19.16h-.7v.77H9.8v.65h.41v1.18a1.15,1.15,0,0,0,.21.79,1,1,0,0,0,.78.23h.38v-.65h-.25A.43.43,0,0,1,11,22a.6.6,0,0,1-.09-.39V20.57h.68v-.65h-.68Z"/>
  <rect class="cls-1" x="14.95" y="18.73" width=".72" height="4.05"/>
  <path class="cls-1" d="M22.91,21.76a1.8,1.8,0,0,1-.36.34h0a.74.74,0,0,1-.38.1.61.61,0,0,1-.51-.24.86.86,0,0,1-.21-.6.84.84,0,0,1,.21-.59.64.64,0,0,1,.51-.24,1,1,0,0,1,.69.39l.47-.45h0a1.45,1.45,0,0,0-2.19-.17,1.45,1.45,0,0,0-.42,1.06,1.5,1.5,0,0,0,.42,1.07,1.39,1.39,0,0,0,1,.42,1.44,1.44,0,0,0,1.22-.63Z"/>
  <path class="cls-1" d="M25.86,20.33a.92.92,0,0,0-.41-.34,1.38,1.38,0,0,0-.59-.12,1.21,1.21,0,0,0-1,.43,1.63,1.63,0,0,0-.36,1.07,1.5,1.5,0,0,0,.39,1.07,1.37,1.37,0,0,0,1,.4,1.45,1.45,0,0,0,1.18-.58h0l-.47-.46h0c-.05.06-.11.11-.16.16a1.3,1.3,0,0,1-.21.16.87.87,0,0,1-.37.08.68.68,0,0,1-.49-.17.67.67,0,0,1-.2-.44h1.89v-.26a2.33,2.33,0,0,0-.07-.53A1.62,1.62,0,0,0,25.86,20.33ZM24.29,21a.67.67,0,0,1,.19-.33.51.51,0,0,1,.37-.15.51.51,0,0,1,.4.15.53.53,0,0,1,.15.33Z"/>
  <path class="cls-1" d="M28.61,20.15h0a1.34,1.34,0,0,0-.89-.28,1.49,1.49,0,0,0-.66.15,1.17,1.17,0,0,0-.49.45h0l.46.44a.75.75,0,0,1,.68-.41.58.58,0,0,1,.38.12.4.4,0,0,1,.14.31v.13a2,2,0,0,0-.53-.08,1.37,1.37,0,0,0-.86.25.84.84,0,0,0-.33.71.8.8,0,0,0,.29.65,1.07,1.07,0,0,0,.69.24,1.22,1.22,0,0,0,.76-.3v.23H29V20.94A1.09,1.09,0,0,0,28.61,20.15Zm-1.27,1.54a.67.67,0,0,1,.35-.08,1.82,1.82,0,0,1,.54.1V22a.84.84,0,0,1-.62.22.52.52,0,0,1-.29-.08.28.28,0,0,1-.1-.21A.27.27,0,0,1,27.34,21.69Z"/>
  <path class="cls-1" d="M31.7,20.2a1.08,1.08,0,0,0-.84-.33,1,1,0,0,0-.69.24v-.17h-.69v2.84h.71V21.21a.78.78,0,0,1,.16-.51.5.5,0,0,1,.42-.18.45.45,0,0,1,.38.16.71.71,0,0,1,.13.45v1.65H32V21.13A1.35,1.35,0,0,0,31.7,20.2Z"/>
  <path class="cls-1" d="M14.05,20.15h0a1.37,1.37,0,0,0-.89-.28,1.5,1.5,0,0,0-.67.15,1.17,1.17,0,0,0-.49.45h0l.47.44a.75.75,0,0,1,.68-.41.57.57,0,0,1,.37.12.4.4,0,0,1,.15.31v.13a2.07,2.07,0,0,0-.53-.08,1.33,1.33,0,0,0-.86.25A.84.84,0,0,0,12,22a.79.79,0,0,0,.28.65,1.09,1.09,0,0,0,.69.24,1.2,1.2,0,0,0,.76-.3v.23h.71V20.94A1.08,1.08,0,0,0,14.05,20.15Zm-1.27,1.54a.66.66,0,0,1,.34-.08,1.89,1.89,0,0,1,.55.1V22a.87.87,0,0,1-.62.22.48.48,0,0,1-.29-.08.25.25,0,0,1-.1-.21A.25.25,0,0,1,12.78,21.69Z"/>
  <path class="cls-1" d="m18.27 22.84a2.09 2.09 0 1 1 2.09-2.08 2.09 2.09 0 0 1-2.09 2.08zm0-3.44a1.36 1.36 0 1 0 1.35 1.36 1.36 1.36 0 0 0-1.35-1.36z"/>
</svg>
