<?xml version="1.0" encoding="UTF-8"?>
<svg data-name="Laag 1" viewBox="0 0 23.84 20" xmlns="http://www.w3.org/2000/svg">
  <defs>
    <style>.cls-1 {
      fill: #414141;
      }

      .cls-1, .cls-2, .cls-3, .cls-4, .cls-5, .cls-6, .cls-7, .cls-8, .cls-9 {
      fill-rule: evenodd;
      }

      .cls-2 {
      fill: #7f7f7f;
      }

      .cls-3 {
      fill: #919191;
      }

      .cls-4 {
      fill: #666;
      }

      .cls-5 {
      fill: #727272;
      }

      .cls-6 {
      fill: gray;
      }

      .cls-7 {
      fill: #969696;
      }

      .cls-8 {
      fill: #e4e4e4;
      }

      .cls-9 {
      fill: #d0d0d0;
      }</style>
  </defs>
  <path class="cls-1" transform="translate(-.03)" d="M3.63,16.22V14.7A.34.34,0,0,1,4,14.33H4a.34.34,0,0,1,.33.37v3.21a2,2,0,0,1-1.06,1.8,2,2,0,0,1-1,.28H2.13a2,2,0,0,1-1.8-1.06,1.94,1.94,0,0,1-.28-1v-.15A2,2,0,0,1,1.11,16a2,2,0,0,1,1-.28h.14a2,2,0,0,1,1.36.54ZM.77,17.84a1.37,1.37,0,0,0,.77,1.26,1.34,1.34,0,0,0,.65.17,1.41,1.41,0,0,0,1.25-.74,1.33,1.33,0,0,0,.19-.71A1.38,1.38,0,0,0,3,16.66a1.35,1.35,0,0,0-.8-.25,1.37,1.37,0,0,0-1.3.84,1.34,1.34,0,0,0-.13.59Zm6.09-2.16H7a2.06,2.06,0,0,1,1.88,1.14,1.93,1.93,0,0,1,.24.94v.15A2.11,2.11,0,0,1,7,20H6.86a2,2,0,0,1-1.8-1.06,1.94,1.94,0,0,1-.28-1v-.15a2.11,2.11,0,0,1,2.08-2.08ZM5.5,17.84a1.38,1.38,0,0,0,.73,1.23,1.31,1.31,0,0,0,.72.2,1.38,1.38,0,0,0,1.22-.74,1.33,1.33,0,0,0,.19-.71,1.36,1.36,0,0,0-.66-1.18,1.32,1.32,0,0,0-.77-.23,1.37,1.37,0,0,0-1.3.84,1.34,1.34,0,0,0-.13.59Zm6.59-1.38a1.25,1.25,0,0,0-.43-.07,1.36,1.36,0,0,0-1.3.85,1.29,1.29,0,0,0-.13.58,1.41,1.41,0,0,0,.88,1.32,1.74,1.74,0,0,0,.68.11,1.77,1.77,0,0,0,.64-.2h.18a.32.32,0,0,1,.29.32v.07c0,.44-.81.54-1.11.56a2,2,0,0,1-2.2-1.55,1.7,1.7,0,0,1-.08-.55v-.14A2,2,0,0,1,10.57,16a1.94,1.94,0,0,1,1-.28h.14a1.89,1.89,0,0,1,1.06.32l0,0v0a.34.34,0,0,1,.07.19v.07a.33.33,0,0,1-.31.32h-.05a1.42,1.42,0,0,1-.45-.16Zm2.34.49.85-.84c.08-.07.38-.4.5-.4h.14a.32.32,0,0,1,.29.32v.07c0,.12-.14.26-.22.34l-.51.52-.87.89L15.73,19l.31.32a.87.87,0,0,1,.12.14.3.3,0,0,1,.05.16v.09c-.05.17-.15.3-.33.3h-.06c-.12,0-.25-.14-.34-.21s-.33-.33-.49-.49l-.56-.55v.87a.34.34,0,0,1-.33.37H14a.34.34,0,0,1-.33-.37v-4.9a.33.33,0,0,1,.33-.36h.06a.33.33,0,0,1,.33.36V17Zm9-1.24h.07a.35.35,0,0,1,.36.36c0,.3-.29.38-.53.38a1.28,1.28,0,0,0-.86.41,1.39,1.39,0,0,0-.4,1v1.75a.34.34,0,0,1-.34.36h0a.34.34,0,0,1-.34-.36V17.78a2,2,0,0,1,.93-1.7,2,2,0,0,1,1.16-.37ZM18.3,19.18a1.67,1.67,0,0,0,.83,0,1.92,1.92,0,0,1,.62-.19h0a.42.42,0,0,1,.2.17.35.35,0,0,1-.14.49l-.06,0a2.08,2.08,0,0,1-2.1,0,2.05,2.05,0,0,1-.76-.76l0-.07A2.06,2.06,0,0,1,17,16.58a2.1,2.1,0,0,1,.66-.6l.1-.06a2.06,2.06,0,0,1,2,0,1.89,1.89,0,0,1,.84.79l0,.06c.14.25,0,.47-.24.62s-.45.38-.66.56L18.3,19.18Zm-.62-.44,1.61-1.38c.18-.16.38-.32.56-.49a1.45,1.45,0,0,0-.59-.39,1.36,1.36,0,0,0-1.21.11,1.38,1.38,0,0,0-.7,1.33,1.29,1.29,0,0,0,.19.63A1.33,1.33,0,0,0,17.68,18.74ZM13.78,4.26h2.13V6.44H17a4.64,4.64,0,0,0,1.48-.25,3.24,3.24,0,0,0,.72-.32,2.72,2.72,0,0,1-.5-1.38,2.93,2.93,0,0,1,.53-2.05l.22-.26.27.22A3.34,3.34,0,0,1,21,4.55a3.28,3.28,0,0,1,2.48.23l.29.17-.15.3a3.1,3.1,0,0,1-3.1,1.48c-1.85,4.6-5.87,6.77-10.74,6.77a6.75,6.75,0,0,1-6.14-3.17l0,0L3.47,9.9A6.11,6.11,0,0,1,3,6.77l0-.33H4.83V4.26H7V2.13h4.26V0h2.56V4.26"/>
  <path class="cls-2" transform="translate(-.03)" d="M20.69,5.07a2.83,2.83,0,0,0-1.21-2.4,2.63,2.63,0,0,0,.25,3.25A4.51,4.51,0,0,1,17,6.8H3.33A5.82,5.82,0,0,0,3.89,10l.16.29c.1.16.21.33.32.48.56,0,1.08,0,1.56,0h0a7.51,7.51,0,0,0,2.26-.33.16.16,0,0,1,.21.11.17.17,0,0,1-.1.2l-.24.07h0a7.12,7.12,0,0,1-1.57.26h-.1l-.79,0-.92,0h0a6.7,6.7,0,0,0,5.15,2.05c4.72,0,8.73-2.1,10.5-6.8a2.84,2.84,0,0,0,3-1.26,2.94,2.94,0,0,0-2.65,0"/>
  <path class="cls-3" transform="translate(-.03)" d="M20.69,5.07a2.83,2.83,0,0,0-1.21-2.4,2.63,2.63,0,0,0,.25,3.25A4.51,4.51,0,0,1,17,6.8H4.14a4.44,4.44,0,0,0,1.79,4h0a7.51,7.51,0,0,0,2.26-.33.16.16,0,0,1,.21.11.17.17,0,0,1-.1.2l-.24.07h0a7.48,7.48,0,0,1-1.61.27h0c1.6.82,3.93.82,6.61-.21A18.52,18.52,0,0,0,20.77,5l-.08,0"/>
  <path class="cls-4" transform="translate(-.03)" d="M3.35,8.22A5.59,5.59,0,0,0,3.89,10l.16.29c.1.16.21.33.32.48.56,0,1.08,0,1.56,0a7.51,7.51,0,0,0,2.26-.33.16.16,0,0,1,.21.11.17.17,0,0,1-.1.2l-.24.07h0a6.94,6.94,0,0,1-1.6.26H6.37l-.78,0-.93,0a6.72,6.72,0,0,0,5.16,2.05c4,0,7.56-1.54,9.6-4.93H3.35"/>
  <path class="cls-5" transform="translate(-.03)" d="M4.26,8.22a4.09,4.09,0,0,0,1.67,2.56,7.51,7.51,0,0,0,2.26-.33.16.16,0,0,1,.21.11.17.17,0,0,1-.1.2l-.24.07h0a7,7,0,0,1-1.62.26c1.61.83,3.93.82,6.61-.21a17.22,17.22,0,0,0,4.56-2.66H4.26"/>
  <path class="cls-6" transform="translate(-.03)" d="M5.18,4.62H7V6.47H5.18Zm.16.15h.14V6.31H5.34Zm.27,0h.15V6.31H5.61V4.77Zm.28,0H6V6.31H5.89Zm.28,0h.15V6.31H6.17Zm.28,0H6.6V6.31H6.45V4.77Zm.28,0h.15V6.31H6.73Zm.58-2.28H9.16V4.33H7.31V2.49Zm.16.15h.14V4.18H7.47Zm.27,0h.15V4.18H7.74V2.64Zm.28,0h.15V4.18H8Zm.28,0h.15V4.18H8.3Zm.28,0h.15V4.18H8.58Zm.28,0H9V4.18H8.86Z"/>
  <path class="cls-7" transform="translate(-.03)" d="M7.31,4.62H9.16V6.47H7.31V4.62Zm.16.15h.14V6.31H7.47Zm.27,0h.15V6.31H7.74V4.77Zm.28,0h.15V6.31H8Zm.28,0h.15V6.31H8.3Zm.28,0h.15V6.31H8.58Zm.28,0H9V6.31H8.86Z"/>
  <path class="cls-6" transform="translate(-.03)" d="M9.45,4.62h1.84V6.47H9.45Zm.15.15h.15V6.31H9.6Zm.27,0H10V6.31H9.87Zm.28,0h.16V6.31h-.16Zm.28,0h.16V6.31h-.16Zm.28,0h.16V6.31h-.16Zm.28,0h.15V6.31H11Z"/>
  <path class="cls-7" transform="translate(-.03)" d="M9.45,2.49h1.84V4.33H9.45Zm.15.15h.15V4.18H9.6Zm.27,0H10V4.18H9.87Zm.28,0h.16V4.18h-.16Zm.28,0h.16V4.18h-.16Zm.28,0h.16V4.18h-.16Zm.28,0h.15V4.18H11Zm.59,2h1.85V6.47H11.58Zm.15.15h.15V6.31h-.15Zm.28,0h.15V6.31H12Zm.28,0h.15V6.31h-.15Zm.28,0h.15V6.31h-.15Zm.28,0H13V6.31h-.15Zm.28,0h.14V6.31h-.14Z"/>
  <path class="cls-6" transform="translate(-.03)" d="M11.58,2.49h1.85V4.33H11.58Zm.15.15h.15V4.18h-.15Zm.28,0h.15V4.18H12Zm.28,0h.15V4.18h-.15Zm.28,0h.15V4.18h-.15Zm.28,0H13V4.18h-.15Zm.28,0h.14V4.18h-.14Z"/>
  <path class="cls-7" transform="translate(-.03)" d="M11.58.36h1.85V2.2H11.58Zm.15.15h.15V2.05h-.15V.51Zm.28,0h.15V2.05H12V.51Zm.28,0h.15V2.05h-.15V.51Zm.28,0h.15V2.05h-.15V.51Zm.28,0H13V2.05h-.15V.51Zm.28,0h.14V2.05h-.14V.51Z"/>
  <path class="cls-6" transform="translate(-.03)" d="M13.71,4.62h1.85V6.47H13.71Zm.15.15H14V6.31h-.15V4.77Zm.28,0h.15V6.31h-.15V4.77Zm.28,0h.15V6.31h-.15Zm.28,0h.15V6.31H14.7Zm.28,0h.15V6.31H15Zm.28,0h.14V6.31h-.14Z"/>
  <path class="cls-8" transform="translate(-.03)" d="M9.05,9.46a.51.51,0,0,1,.51.51.5.5,0,0,1-.5.51h0A.51.51,0,0,1,8.54,10a.53.53,0,0,1,.51-.51"/>
  <path class="cls-1" transform="translate(-.03)" d="M9.05,9.61l.13,0a.15.15,0,0,0,0,.21.14.14,0,0,0,.12.07.13.13,0,0,0,.13-.08.37.37,0,0,1-.19.48.36.36,0,0,1-.48-.2.35.35,0,0,1,.2-.47.32.32,0,0,1,.14,0M0,8.41H23.74c-.51-.13-1.63-.31-1.45-1-.94,1.09-3.2.76-3.77.23-.64.92-4.34.57-4.6-.15a3.29,3.29,0,0,1-4.07,0c-.26.72-4,1.07-4.6.15-.57.53-2.83.86-3.77-.23.18.68-.93.86-1.45,1"/>
  <path class="cls-9" transform="translate(-.03)" d="m10.4 13.14a4.52 4.52 0 0 1-2.34-2.31 7.61 7.61 0 0 1-1.69 0.26h-0.77-1a6.75 6.75 0 0 0 5.22 2.07h0.58"/>
  <path class="cls-8" transform="translate(-.03)" d="M8.53,11.65a4.62,4.62,0,0,1-.47-.82,7.61,7.61,0,0,1-1.69.26,5.43,5.43,0,0,0,2.16.56"/>
</svg>
