<?xml version="1.0" encoding="UTF-8"?>
<svg data-name="Laag 1" viewBox="0 0 22.37 21.81" xmlns="http://www.w3.org/2000/svg">
  <defs>
    <style>.cls-1, .cls-2 {
      fill: #606060;
      }

      .cls-1 {
      fill-rule: evenodd;
      }</style>
  </defs>
  <path class="cls-1" d="M11.18,0A11.18,11.18,0,0,0,7.65,21.79c.56.11.76-.24.76-.53s0-1.15,0-2.09c-3.11.68-3.77-1.32-3.77-1.32a3,3,0,0,0-1.24-1.63c-1-.7.07-.68.07-.68a2.35,2.35,0,0,1,1.72,1.15,2.37,2.37,0,0,0,3.25.93,2.35,2.35,0,0,1,.71-1.49c-2.48-.29-5.09-1.25-5.09-5.53a4.3,4.3,0,0,1,1.15-3,4,4,0,0,1,.11-3s.94-.3,3.07,1.14a10.78,10.78,0,0,1,5.6,0c2.14-1.44,3.08-1.14,3.08-1.14a4.1,4.1,0,0,1,.11,3,4.34,4.34,0,0,1,1.15,3c0,4.29-2.62,5.24-5.11,5.52A2.65,2.65,0,0,1,14,18.19c0,1.49,0,2.7,0,3.07s.2.64.76.53A11.18,11.18,0,0,0,11.18,0Z"/>
  <path class="cls-2" d="M4.24,16.06a.16.16,0,0,1-.2,0c-.08,0-.12-.11-.1-.17s.12-.07.2,0a.15.15,0,0,1,.1.17ZM4.1,16"/>
  <path class="cls-2" d="M4.69,16.56c-.05.05-.16,0-.23,0s-.09-.18,0-.23.15,0,.23,0a.17.17,0,0,1,0,.23Zm-.11-.11"/>
  <path class="cls-2" d="M5.13,17.21a.21.21,0,0,1-.25-.1.2.2,0,0,1,0-.27c.07-.05.18,0,.25.1a.2.2,0,0,1,0,.27Zm0,0"/>
  <path class="cls-2" d="M5.73,17.83a.2.2,0,0,1-.28,0c-.1-.09-.13-.21-.07-.28s.2-.05.29,0,.13.22.06.29Zm0,0"/>
  <path class="cls-2" d="M6.57,18.19a.22.22,0,0,1-.28.09c-.13,0-.21-.14-.19-.23A.22.22,0,0,1,6.38,18c.13,0,.21.14.19.23Zm0,0"/>
  <path class="cls-2" d="M7.48,18.26c0,.09-.1.16-.24.17S7,18.35,7,18.26s.11-.17.24-.17.24.07.24.17Zm0,0"/>
  <path class="cls-2" d="M8.33,18.11c0,.09-.07.18-.2.21s-.25,0-.27-.12.08-.19.21-.21.25,0,.26.12Zm0,0"/>
</svg>
