<?xml version="1.0" encoding="UTF-8"?>
<svg data-name="Laag 1" viewBox="0 0 25 21.82" xmlns="http://www.w3.org/2000/svg">
  <defs>
    <style>.cls-1 {
      fill: #919191;
      }

      .cls-2 {
      fill: #909090;
      }

      .cls-3 {
      fill: #707070;
      }

      .cls-4 {
      fill: #b0b0b0;
      }</style>
  </defs>
  <path class="cls-1" transform="translate(0)" d="M12.77,15.1h-.88v6.59h3.58v-.82H12.78V15.1Z"/>
  <path class="cls-1" transform="translate(0)" d="M18.88,20.53a1.49,1.49,0,0,1-1.1.46c-.67,0-.94-.33-.94-.76,0-.65.45-1,1.42-1,.21,0,.41,0,.62,0v1.22Zm-.92-4a2.93,2.93,0,0,0-1.88.68l.31.54a2.7,2.7,0,0,1,1.44-.42c.73,0,1.05.37,1.05,1v.32a4.32,4.32,0,0,0-.62-.05c-1.54,0-2.33.54-2.33,1.68a1.41,1.41,0,0,0,1.57,1.52A1.59,1.59,0,0,0,19,21.05l.16.64h.62V18.32A1.56,1.56,0,0,0,18,16.54Z"/>
  <path class="cls-1" transform="translate(0)" d="M22.59,21a1.91,1.91,0,0,1-.84-.15v-3a1.74,1.74,0,0,1,1.15-.43c.85,0,1.18.6,1.18,1.58,0,1.38-.53,2-1.49,2M23,16.55a1.6,1.6,0,0,0-1.22.53v-2h-.87v6.42a4.48,4.48,0,0,0,1.67.28c1.65,0,2.44-1.06,2.44-2.87,0-1.44-.74-2.39-2-2.39"/>
  <path class="cls-1" transform="translate(0)" d="M3.16,15.82a2.49,2.49,0,0,1,1.61.52l.38-.66A3,3,0,0,0,3.2,15C1.32,15,0,16.13,0,18.44s1.42,3.37,3.05,3.37a5.26,5.26,0,0,0,2-.38l0-2.59V18H2.58v.81H4.12l0,2a2.46,2.46,0,0,1-1,.18c-1.3,0-2.18-.82-2.18-2.55s.9-2.62,2.23-2.62"/>
  <path class="cls-1" transform="translate(0)" d="M9.38,15.1H8.51V20a1.56,1.56,0,0,0,1.78,1.78,3.27,3.27,0,0,0,.53,0V21a1.82,1.82,0,0,1-.4,0c-.73,0-1-.37-1-1V17.38h1.45v-.72H9.38V15.1Z"/>
  <path class="cls-1" transform="translate(0)" d="M6.32,21.69h.86v-5H6.32Z"/>
  <path class="cls-1" transform="translate(0)" d="M6.32,16h.86v-.86H6.32Z"/>
  <path class="cls-2" transform="translate(0)" d="M19.31,7.2l-.76-2.35L17,.18A.26.26,0,0,0,16.7,0a.29.29,0,0,0-.17.17L15,4.84H10L8.46.18A.26.26,0,0,0,8.13,0,.27.27,0,0,0,8,.18L6.45,4.84,5.69,7.2a.52.52,0,0,0,.19.59L12.5,12.6l6.62-4.81a.52.52,0,0,0,.19-.59"/>
  <path class="cls-3" transform="translate(0)" d="m12.5 12.59 2.5-7.75h-5z"/>
  <path class="cls-2" transform="translate(0)" d="M12.5,12.59,10,4.84H6.46Z"/>
  <path class="cls-4" transform="translate(0)" d="M6.45,4.85h0L5.69,7.2a.5.5,0,0,0,.19.58L12.5,12.6Z"/>
  <path class="cls-3" transform="translate(0)" d="M6.45,4.85H10L8.46.18A.26.26,0,0,0,8.13,0,.25.25,0,0,0,8,.18Z"/>
  <path class="cls-2" transform="translate(0)" d="M12.5,12.59,15,4.84h3.53Z"/>
  <path class="cls-4" transform="translate(0)" d="M18.55,4.85h0l.76,2.35a.5.5,0,0,1-.19.58L12.5,12.59l6.05-7.74Z"/>
  <path class="cls-3" transform="translate(0)" d="M18.55,4.85H15L16.54.18A.26.26,0,0,1,16.87,0,.27.27,0,0,1,17,.18l1.52,4.67Z"/>
</svg>
