<?xml version="1.0" encoding="UTF-8"?>
<svg data-name="Laag 1" viewBox="0 0 14.71 20.04" xmlns="http://www.w3.org/2000/svg">
  <defs>
    <style>.cls-1 {
      fill: #d8d8d8;
      }

      .cls-2 {
      fill: #b7b7b7;
      }

      .cls-3 {
      fill: #fff;
      }

      .cls-4 {
      fill: #202020;
      }</style>
  </defs>
  <path class="cls-1" transform="translate(0 .03)" d="M.19,10.81c0,.6.62.32.88.14s.33,0,.36-.38a5.15,5.15,0,0,0,0-.68,1.63,1.63,0,0,0-1.11.29c-.17.11-.47.49-.15.63"/>
  <path class="cls-1" transform="translate(0 .03)" d="M12,18.09c.45.28,1.29,1.13.6,1.55-.65.6-1-.66-1.59-.84a1.5,1.5,0,0,1,1-.71Z"/>
  <path class="cls-1" transform="translate(0 .03)" d="M3.86,19.05c-.53.08-.83.56-1.28.81S2,19.78,2,19.71s-.06,0-.17-.07c-.39-.62.41-1.07.82-1.37.58-.12.94.38,1.24.78Z"/>
  <path class="cls-1" transform="translate(0 .03)" d="M14.51,10.74c0,.59-.62.31-.88.13s-.33,0-.35-.37a5.31,5.31,0,0,1,0-.69,1.68,1.68,0,0,1,1.11.29c.17.12.47.5.15.64"/>
  <path class="cls-2" transform="translate(0 .03)" d="M13,3.52C15,2.79,13.39,0,11.61,1.23A6.68,6.68,0,0,0,7.12,0a7.3,7.3,0,0,0-4.34,1.4C1,.29-.65,3.05,1.44,3.74c-.58,2.28.08,4.6,0,6.92C1.34,12.74.8,15.53,2,17.4c1,1.59,3.1,2.16,4.84,2.23,2.23.08,4.92-.47,6-2.63s.74-4.61.61-6.82.12-4.51-.46-6.66Z"/>
  <path transform="translate(0 .03)" d="M14.67,10.39a1.13,1.13,0,0,0-.27-.34,1.73,1.73,0,0,0-1-.3c0-.36,0-.75,0-1.24V8.06a25,25,0,0,0-.1-2.81,10.73,10.73,0,0,0-.3-1.7,1.37,1.37,0,0,0,.89-.85,1.35,1.35,0,0,0-.14-1.1,1.44,1.44,0,0,0-2.15-.46A4.82,4.82,0,0,0,10.33.4,9.3,9.3,0,0,0,7.13,0V0a9.33,9.33,0,0,0-3.4.77,4.14,4.14,0,0,0-.94.62,1.5,1.5,0,0,0-1.28-.2,1.52,1.52,0,0,0-.9.73A1.3,1.3,0,0,0,.49,3a1.41,1.41,0,0,0,.89.78,8.49,8.49,0,0,0-.23,1.88A22.13,22.13,0,0,0,1.27,8c.07.89.1,1.3.11,1.79a1.77,1.77,0,0,0-1.07.3.91.91,0,0,0-.27.34.27.27,0,0,0,.1.39c0,.27.18.4.42.38A1.21,1.21,0,0,0,1.11,11l.13-.07h0l.05,0,0,0c0,.27,0,.55-.08,1.19s-.09,1.12-.1,1.56a6.59,6.59,0,0,0,.73,3.79,3.71,3.71,0,0,0,.67.81l-.34.24a1.71,1.71,0,0,0-.5.52.62.62,0,0,0,0,.68h0c.06.07.09.08.14.08h0s0,0,0,0l.06.08a.44.44,0,0,0,.61,0,2.59,2.59,0,0,0,.47-.34h0a1.49,1.49,0,0,1,.78-.45l.09,0,.11.05a8.6,8.6,0,0,0,2.73.54,9.25,9.25,0,0,0,3.44-.48,6,6,0,0,0,.77-.34,1.47,1.47,0,0,1,.52.46v0s0,0,0,0,0,0,0,0a1.27,1.27,0,0,0,.46.4.5.5,0,0,0,.56-.13c.34-.21.36-.53.14-.9a2.27,2.27,0,0,0-.68-.7,4.16,4.16,0,0,0,.76-1A8.75,8.75,0,0,0,13.61,13c0-.59,0-1.1-.1-2.07v0l.09,0a1.26,1.26,0,0,0,.56.23c.23,0,.39-.1.41-.38h0a.28.28,0,0,0,.1-.39ZM12.84,1a1.36,1.36,0,0,1,.83.66,1.23,1.23,0,0,1,.13,1,1.25,1.25,0,0,1-.81.77,8.67,8.67,0,0,0-.31-.9A.43.43,0,0,0,12.8,2a.47.47,0,0,0-.6-.21,4.85,4.85,0,0,0-.49-.52A1.36,1.36,0,0,1,12.84,1ZM.59,3a1.18,1.18,0,0,1,.1-1,1.39,1.39,0,0,1,.84-.68,1.41,1.41,0,0,1,1.15.17,3.84,3.84,0,0,0-.59.68c-.3-.15-.61-.18-.78.14s0,.55.32.71c0,.1-.08.2-.11.3l-.12.39A1.29,1.29,0,0,1,.59,3Zm.69,7.83,0,0-.05,0-.14.08a1,1,0,0,1-.5.21c-.18,0-.27,0-.29-.26a.37.37,0,0,0,.22-.14l-.1-.07s-.06.07-.17.1h0a.18.18,0,0,1-.06-.25.85.85,0,0,1,.24-.29,1.51,1.51,0,0,1,1-.27c0,.14,0,.28,0,.42a.09.09,0,0,1,0,.05.58.58,0,0,1,0,.15h0c0,.17,0,.19-.09.22ZM3,19.46v0a2.83,2.83,0,0,1-.45.33c-.22.13-.37.1-.47,0a.21.21,0,0,1,0-.06l0,0H2a.78.78,0,0,1,.15-.34h0a1.2,1.2,0,0,0,.12-.21l-.1,0-.11.19s0,0,0,0a1,1,0,0,0-.17.34h0s0,0-.06,0c-.22-.35,0-.66.46-1l.34-.24h0A5.08,5.08,0,0,0,3.75,19h0s0,0,0,0a1.8,1.8,0,0,0-.74.45Zm9.65-.62c.18.3.17.54-.05.71a1.09,1.09,0,0,1,0-.14h0a1,1,0,0,0-.23-.41l-.08.08a.87.87,0,0,1,.21.37h0l.07.16a.35.35,0,0,1-.42.08,1.33,1.33,0,0,1-.42-.36.1.1,0,0,1,0,0l0,0s0,0,0,0a2.11,2.11,0,0,0-.48-.46,4.61,4.61,0,0,0,.87-.63,2.7,2.7,0,0,1,.66.69ZM12.75,17a4.37,4.37,0,0,1-2.54,2.12,9.13,9.13,0,0,1-3.41.46c-2.11-.07-3.94-.81-4.79-2.2a6.43,6.43,0,0,1-.72-3.72c0-.45,0-.84.1-1.57s.08-1.05.1-1.42,0-.53,0-.82c0-.51,0-.91-.11-1.81a22.19,22.19,0,0,1-.12-2.37,7.76,7.76,0,0,1,.37-2.34A4,4,0,0,1,3.78.84,9.16,9.16,0,0,1,7.13.08a9.06,9.06,0,0,1,3.16.43,4.07,4.07,0,0,1,2.28,2,9.55,9.55,0,0,1,.63,2.7,27,27,0,0,1,.11,2.8V8.5c0,.7,0,1.19,0,1.68,0,.19,0,.27.05.72.06,1,.09,1.48.09,2.07a8.56,8.56,0,0,1-.74,4Zm1.76-6.3h0c-.1,0-.14-.06-.17-.1l-.09.07c0,.07.1.09.22.13,0,.21-.13.29-.29.27a1.16,1.16,0,0,1-.51-.21.39.39,0,0,0-.14-.08h0c0-.32,0-.4,0-.56V9.88a1.46,1.46,0,0,1,.87.28.76.76,0,0,1,.24.29.14.14,0,0,1-.05.23Z"/>
  <path class="cls-3" transform="translate(0 .03)" d="M8,6a4.13,4.13,0,0,1,0,.93c-.08.15-.23.17-.36.22a.54.54,0,0,1-.41-.32,5.07,5.07,0,0,1,0-1,1.2,1.2,0,0,1,.41.06A1.57,1.57,0,0,1,8,6Z"/>
  <path class="cls-3" transform="translate(0 .03)" d="M6.37,6c-.16.61.21,1.6.82.78a5.69,5.69,0,0,1,0-1A3.84,3.84,0,0,0,6.37,6Z"/>
  <path transform="translate(0 .03)" d="m8.06 6.23v-0.32l-0.06-0.06-0.72-0.22h-0.07l-0.82 0.21a1.36 1.36 0 0 0 0.02 1.06c0.18 0.32 0.48 0.33 0.78 0a0.59 0.59 0 0 0 0.44 0.31h0.09a0.42 0.42 0 0 0 0.29-0.21 3.25 3.25 0 0 0 0-0.33v-0.33zm-0.92-0.23v0.2a2.43 2.43 0 0 0 0 0.54c-0.27 0.34-0.48 0.34-0.63 0.08a1.27 1.27 0 0 1-0.06-0.92l0.73-0.18v0.28zm0.86 0.87c0 0.07-0.09 0.11-0.23 0.15s0 0 0 0h-0.08a0.5 0.5 0 0 1-0.35-0.28 3 3 0 0 1 0-0.53v-0.2s0-0.21 0-0.29l0.6 0.28v0.3s0 0.23 0 0.32a2.66 2.66 0 0 1 0 0.3z"/>
  <path class="cls-3" transform="translate(0 .03)" d="M2.91,3.46C3.44,5.52,6.73,5,6.6,2.92c-.15-2.47-4.2-2-3.69.54"/>
  <path transform="translate(0 .03)" d="M6.66,2.92a1.68,1.68,0,0,0-.74-1.36,2.07,2.07,0,0,0-1.42-.3,2.07,2.07,0,0,0-1.29.66,1.77,1.77,0,0,0-.36,1.54h0c.54,2.11,3.94,1.6,3.81-.54ZM3,3.45A1.63,1.63,0,0,1,3.29,2a2,2,0,0,1,2.57-.34,1.58,1.58,0,0,1,.69,1.28c.12,2-3.08,2.48-3.59.51Z"/>
  <ellipse cx="3.81" cy="3.15" rx=".56" ry=".6"/>
  <ellipse class="cls-3" cx="4.07" cy="3.29" rx=".13" ry=".16"/>
  <path class="cls-3" transform="translate(0 .03)" d="M7.53,3.07c.4,2.37,4.27,1.74,3.71-.64C10.74.29,7.39.88,7.53,3.07"/>
  <path transform="translate(0 .03)" d="M11.29,2.42c-.51-2.2-4-1.6-3.82.66h0a1.87,1.87,0,0,0,2.28,1.5A2,2,0,0,0,11,3.9a1.65,1.65,0,0,0,.3-1.48Zm-.38,1.41a1.93,1.93,0,0,1-1.18.65A1.76,1.76,0,0,1,7.58,3.07C7.45.94,10.7.37,11.19,2.44a1.57,1.57,0,0,1-.28,1.39Z"/>
  <ellipse cx="8.47" cy="3" rx=".55" ry=".6"/>
  <ellipse class="cls-3" cx="8.73" cy="3.14" rx=".13" ry=".16"/>
  <path class="cls-1" transform="translate(0 .03)" d="M6.49,4.74a.71.71,0,0,0-.59,1c.31.57,1,0,1.44,0s.9.53,1.3.09-.19-1-.69-1.16l-1.46.06Z"/>
  <path class="cls-4" transform="translate(0 .03)" d="M8.7,5.13A1.84,1.84,0,0,0,8,4.64H8l-1.47.06a.77.77,0,0,0-.64,1.08A.47.47,0,0,0,6.26,6,1.23,1.23,0,0,0,6.74,6l.07,0a1.45,1.45,0,0,1,.52-.11h0a1.24,1.24,0,0,1,.47.13,1.34,1.34,0,0,0,.43.14.56.56,0,0,0,.45-.19.54.54,0,0,0,0-.76Zm-.1.68A.4.4,0,0,1,8.25,6a1.11,1.11,0,0,1-.4-.12,1.23,1.23,0,0,0-.51-.14,1.25,1.25,0,0,0-.57.11l-.07,0c-.42.14-.62.13-.76-.12a.66.66,0,0,1,.55-.92l1.45-.06a1.7,1.7,0,0,1,.67.46.42.42,0,0,1,0,.61Z"/>
  <path transform="translate(0 .03)" d="M8.07,4.5c-.18-.66-1.68-.56-1.64.22.07.58,1.81.43,1.64-.22Z"/>
</svg>
