<?xml version="1.0" encoding="UTF-8"?>
<svg data-name="Laag 1" viewBox="0 0 53.19 19.88" xmlns="http://www.w3.org/2000/svg">
  <defs>
    <style>.cls-1 {
      fill: #333;
      }

      .cls-2 {
      fill: #b8b8b8;
      }

      .cls-3 {
      fill: #fff;
      }

      .cls-4 {
      fill: #b9b9b9;
      }</style>
  </defs>
  <ellipse class="cls-1" cx="49.16" cy="2.27" rx=".56" ry=".08"/>
  <path class="cls-2" transform="translate(0 -.04)" d="M51.85,6.72a1.69,1.69,0,1,1-.5-3.3,1.75,1.75,0,0,1,1.09.39c-.39-.9-1.28-1.83-3.27-1.42h0c-2-.42-2.89.53-3.27,1.44A1.65,1.65,0,0,1,47,3.42,1.69,1.69,0,0,1,47,6.8a1.84,1.84,0,0,1-.53-.08,3.45,3.45,0,0,0,5.38,0Z"/>
  <path class="cls-1" transform="translate(0 -.04)" d="M51.9,1.62,53,.54a.3.3,0,0,0,0-.41.28.28,0,0,0-.41,0L51.44,1.25A4.05,4.05,0,0,0,49.16.54a4,4,0,0,0-2.45.84L45.46.13a.28.28,0,0,0-.41,0,.3.3,0,0,0,0,.41l1.23,1.22a4,4,0,1,0,5.62-.14Zm-5.43,5.1A1.84,1.84,0,0,0,47,6.8a1.69,1.69,0,0,0,0-3.38,1.65,1.65,0,0,0-1.11.41c.38-.91,1.26-1.86,3.27-1.44h0c2-.41,2.88.52,3.27,1.42a1.75,1.75,0,0,0-1.09-.39,1.69,1.69,0,1,0,.5,3.3,3.45,3.45,0,0,1-5.38,0ZM47,4.12a.5.5,0,1,1,.5.5A.5.5,0,0,1,47,4.12Zm5.36,0a.5.5,0,0,1-.51.5.5.5,0,0,1,0-1A.5.5,0,0,1,52.36,4.12Z"/>
  <path class="cls-3" transform="translate(0 -.04)" d="M48,4.12a.5.5,0,1,0-.5.5A.5.5,0,0,0,48,4.12Z"/>
  <path class="cls-3" transform="translate(0 -.04)" d="M51.35,4.12a.5.5,0,0,0,.5.5.5.5,0,1,0,0-1A.5.5,0,0,0,51.35,4.12Z"/>
  <path class="cls-4" transform="translate(0 -.04)" d="M37,5.09c-.36,0-.7.08-1,.12s-.62.11-.89.17-.5.12-.69.18l.4,2.52a7,7,0,0,1,1.35-.33,11.6,11.6,0,0,1,1.57-.11,2.34,2.34,0,0,1,1.68.48,1.74,1.74,0,0,1,.48,1.28v.29a5.07,5.07,0,0,0-.77-.13A8.54,8.54,0,0,0,38,9.5a8.28,8.28,0,0,0-1.74.18,4.68,4.68,0,0,0-1.49.58,3,3,0,0,0-1,1.07A3.31,3.31,0,0,0,33.36,13a4,4,0,0,0,.33,1.7,2.92,2.92,0,0,0,1,1.12,4.43,4.43,0,0,0,1.5.62,9.52,9.52,0,0,0,1.94.19A18.16,18.16,0,0,0,41,16.4c.8-.14,1.42-.25,1.87-.35V9.55a7.2,7.2,0,0,0-.23-1.87,3.39,3.39,0,0,0-.79-1.43,3.57,3.57,0,0,0-1.48-.9A7.18,7.18,0,0,0,38.06,5a9.54,9.54,0,0,0-1.08,0m0,8.74a1,1,0,0,1-.49-1,1.1,1.1,0,0,1,.17-.62,1.23,1.23,0,0,1,.45-.39,2.11,2.11,0,0,1,.67-.19,5.18,5.18,0,0,1,.81-.05,5.71,5.71,0,0,1,.68,0,3.7,3.7,0,0,1,.55.08V14a4.68,4.68,0,0,1-.66.06l-.86,0A2.59,2.59,0,0,1,37,13.83M32.86,5.32h-3v11h3Zm-11.75,0H17.74L19.61,8l2,2.81c-.39.42-.78.87-1.18,1.34s-.77,1-1.11,1.48-.66,1-.95,1.48-.52.89-.69,1.23h3.17c.15-.27.31-.57.5-.89s.38-.65.58-1a4.28,4.28,0,0,1,.62-.82c.22-.22.43-.42.64-.6a8.09,8.09,0,0,1,.67.65,4.5,4.5,0,0,1,.66.87c.21.34.4.67.56,1l.42.78h3.35a28.29,28.29,0,0,0-1.64-2.65,33,33,0,0,0-2.33-3l3.82-5.35H25.46L23.27,8.41Zm-10.66,4a5,5,0,0,1,.2-.76A1.92,1.92,0,0,1,11,7.89a1.71,1.71,0,0,1,.62-.46,2,2,0,0,1,.88-.18A1.86,1.86,0,0,1,14,7.91a2.08,2.08,0,0,1,.35.66,3.68,3.68,0,0,1,.13.75Zm-2.8,4.3a4.68,4.68,0,0,0,2.84,3A6.7,6.7,0,0,0,13,17a11.07,11.07,0,0,0,1.15-.06q.57-.06,1.08-.15a6.75,6.75,0,0,0,.91-.22,4.77,4.77,0,0,0,.66-.24l-.41-2.49a6.15,6.15,0,0,1-1.33.38,8.24,8.24,0,0,1-1.65.16,3.54,3.54,0,0,1-2.09-.56,2,2,0,0,1-.89-1.5h6.94c0-.16,0-.35,0-.56s0-.41,0-.58A5.8,5.8,0,0,0,16.12,7a4.76,4.76,0,0,0-3.63-1.41A5.29,5.29,0,0,0,10.57,6,4.71,4.71,0,0,0,8.92,7.09a5.32,5.32,0,0,0-1.16,1.8,6.43,6.43,0,0,0-.45,2.51,7.27,7.27,0,0,0,.34,2.22M4.83,18.89a4.28,4.28,0,0,0,1-3.16V5.32h-3V15.65a2.27,2.27,0,0,1-.28,1.25,1.09,1.09,0,0,1-1,.43,3.69,3.69,0,0,1-.63,0,3.52,3.52,0,0,1-.56-.14L0,19.63a4.79,4.79,0,0,0,1,.23c.37,0,.64.06.83.06a4,4,0,0,0,3-1"/>
</svg>
