<?xml version="1.0" encoding="utf-8"?>
<!-- Generator: Adobe Illustrator 24.1.1, SVG Export Plug-In . SVG Version: 6.00 Build 0)  -->
<svg version="1.2" baseProfile="tiny" id="Laag_1" xmlns="http://www.w3.org/2000/svg" xmlns:xlink="http://www.w3.org/1999/xlink"
     x="0px" y="0px" viewBox="0 0 22.37 8.38" xml:space="preserve">
<ellipse fill="#333333" cx="20.68" cy="0.95" rx="0.26" ry="0.05"/>
  <g id="XMLID_109_">
	<g id="XMLID_118_">
		<path id="XMLID_126_" fill="#B8B8B8" d="M21.8,2.8c-0.07,0.02-0.14,0.03-0.21,0.03c-0.39,0-0.71-0.32-0.71-0.71
			c0-0.39,0.32-0.71,0.71-0.71c0.17,0,0.33,0.06,0.45,0.17c-0.16-0.38-0.53-0.77-1.37-0.6l0,0l0,0c-0.84-0.17-1.21,0.22-1.37,0.6
			c0.12-0.11,0.29-0.17,0.46-0.17c0.39,0,0.71,0.32,0.71,0.71c0,0.39-0.32,0.71-0.71,0.71c-0.08,0-0.15-0.01-0.22-0.03
			c0.26,0.33,0.67,0.54,1.13,0.54C21.13,3.34,21.54,3.13,21.8,2.8z"/>
      <path id="XMLID_121_" fill="#333333" d="M21.82,0.66l0.45-0.45c0.05-0.05,0.05-0.12,0-0.17c-0.05-0.05-0.12-0.05-0.17,0
			l-0.47,0.47c-0.27-0.19-0.6-0.3-0.95-0.3c-0.39,0-0.74,0.13-1.03,0.35l-0.52-0.52c-0.05-0.05-0.12-0.05-0.17,0
			c-0.05,0.05-0.05,0.12,0,0.17l0.51,0.51c-0.3,0.3-0.48,0.72-0.48,1.18c0,0.93,0.76,1.69,1.69,1.69s1.69-0.76,1.69-1.69
			C22.37,1.41,22.16,0.97,21.82,0.66z M19.55,2.8c0.07,0.02,0.14,0.03,0.22,0.03c0.39,0,0.71-0.32,0.71-0.71
			c0-0.39-0.32-0.71-0.71-0.71c-0.18,0-0.34,0.07-0.46,0.17c0.16-0.38,0.53-0.78,1.37-0.6l0,0l0,0c0.84-0.17,1.21,0.22,1.37,0.6
			c-0.12-0.1-0.28-0.17-0.45-0.17c-0.39,0-0.71,0.32-0.71,0.71c0,0.39,0.32,0.71,0.71,0.71c0.07,0,0.14-0.01,0.21-0.03
			c-0.26,0.33-0.67,0.54-1.13,0.54C20.22,3.34,19.82,3.13,19.55,2.8z M19.77,1.71c0-0.12,0.09-0.21,0.21-0.21
			c0.12,0,0.21,0.09,0.21,0.21c0,0.12-0.09,0.21-0.21,0.21C19.86,1.92,19.77,1.83,19.77,1.71z M22.02,1.71
			c0,0.12-0.09,0.21-0.21,0.21s-0.21-0.09-0.21-0.21c0-0.12,0.09-0.21,0.21-0.21S22.02,1.59,22.02,1.71z"/>
      <path id="XMLID_120_" fill="#FFFFFF" d="M20.19,1.71c0-0.12-0.09-0.21-0.21-0.21c-0.12,0-0.21,0.09-0.21,0.21
			c0,0.12,0.09,0.21,0.21,0.21C20.1,1.92,20.19,1.83,20.19,1.71z"/>
      <path id="XMLID_119_" fill="#FFFFFF" d="M21.59,1.71c0,0.12,0.09,0.21,0.21,0.21s0.21-0.09,0.21-0.21c0-0.12-0.09-0.21-0.21-0.21
			S21.59,1.59,21.59,1.71z"/>
	</g>
    <path id="XMLID_110_" fill="#B9B9B9" d="M15.78,2.17c-0.15,0.01-0.29,0.03-0.42,0.05C15.23,2.24,15.11,2.26,15,2.29
		c-0.11,0.03-0.2,0.05-0.28,0.07l0.16,1.03c0.15-0.06,0.34-0.1,0.55-0.13c0.21-0.03,0.43-0.05,0.64-0.05c0.33,0,0.56,0.07,0.69,0.2
		c0.13,0.13,0.2,0.31,0.2,0.52v0.12C16.88,4.03,16.78,4.01,16.65,4c-0.13-0.01-0.28-0.02-0.44-0.02c-0.25,0-0.48,0.02-0.71,0.07
		c-0.23,0.05-0.43,0.13-0.61,0.24c-0.18,0.11-0.32,0.25-0.43,0.44c-0.11,0.18-0.16,0.41-0.16,0.67c0,0.28,0.05,0.51,0.14,0.7
		c0.09,0.19,0.22,0.34,0.4,0.46c0.17,0.12,0.38,0.2,0.61,0.25c0.24,0.05,0.5,0.08,0.8,0.08c0.46,0,0.86-0.03,1.19-0.08
		c0.33-0.05,0.58-0.1,0.77-0.14V3.99c0-0.28-0.03-0.54-0.09-0.77C18.04,3,17.93,2.8,17.78,2.64c-0.15-0.16-0.35-0.28-0.61-0.37
		c-0.25-0.09-0.57-0.13-0.95-0.13C16.08,2.14,15.93,2.15,15.78,2.17 M15.77,5.78c-0.13-0.08-0.2-0.22-0.2-0.42
		c0-0.1,0.02-0.19,0.07-0.26c0.05-0.07,0.11-0.12,0.19-0.16C15.91,4.9,16,4.87,16.11,4.86c0.11-0.01,0.22-0.02,0.34-0.02
		c0.09,0,0.18,0.01,0.28,0.02c0.1,0.01,0.18,0.02,0.23,0.03v0.97c-0.07,0.01-0.16,0.02-0.28,0.03c-0.11,0.01-0.24,0.01-0.36,0.01
		C16.09,5.89,15.91,5.85,15.77,5.78 M13.74,2.26h-1.28v4.52h1.28V2.26z M8.94,2.26H7.56c0.25,0.36,0.51,0.72,0.77,1.09
		c0.26,0.37,0.53,0.75,0.81,1.15C8.98,4.68,8.82,4.87,8.66,5.07c-0.16,0.2-0.32,0.4-0.46,0.61C8.06,5.88,7.93,6.09,7.81,6.28
		C7.69,6.48,7.6,6.65,7.52,6.79h1.3c0.06-0.11,0.13-0.24,0.21-0.37c0.08-0.13,0.16-0.26,0.24-0.4c0.08-0.13,0.17-0.25,0.25-0.34
		C9.62,5.59,9.7,5.51,9.79,5.44c0.09,0.08,0.18,0.17,0.28,0.27c0.09,0.1,0.18,0.22,0.27,0.36c0.09,0.14,0.16,0.28,0.23,0.4
		c0.07,0.13,0.13,0.24,0.17,0.32h1.37c-0.17-0.32-0.39-0.68-0.67-1.09c-0.28-0.41-0.6-0.82-0.96-1.23l1.57-2.2h-1.32l-0.9,1.27
		L8.94,2.26z M4.46,4.07c0.02-0.11,0.04-0.22,0.08-0.32c0.04-0.11,0.09-0.2,0.16-0.28c0.07-0.08,0.15-0.14,0.26-0.19
		C5.06,3.23,5.19,3.2,5.33,3.2c0.15,0,0.27,0.03,0.37,0.08c0.1,0.05,0.18,0.12,0.25,0.2C6.02,3.56,6.07,3.65,6.1,3.75
		c0.03,0.1,0.05,0.21,0.06,0.32H4.46z M3.29,5.49c0.09,0.29,0.24,0.53,0.44,0.74c0.2,0.21,0.45,0.37,0.75,0.49
		c0.3,0.12,0.65,0.18,1.06,0.18c0.16,0,0.32-0.01,0.48-0.03c0.16-0.02,0.31-0.04,0.45-0.06c0.14-0.03,0.27-0.06,0.38-0.09
		c0.11-0.03,0.21-0.07,0.28-0.1L6.96,5.58C6.81,5.65,6.63,5.7,6.4,5.74C6.18,5.79,5.94,5.81,5.71,5.81c-0.37,0-0.66-0.08-0.88-0.23
		C4.61,5.42,4.49,5.21,4.46,4.95h2.91C7.37,4.88,7.38,4.8,7.39,4.71c0.01-0.09,0.01-0.17,0.01-0.25c0-0.76-0.19-1.34-0.56-1.73
		C6.46,2.34,5.96,2.14,5.31,2.14c-0.28,0-0.54,0.05-0.8,0.15C4.25,2.4,4.02,2.55,3.82,2.76c-0.2,0.2-0.36,0.45-0.49,0.75
		c-0.12,0.3-0.18,0.65-0.18,1.05C3.15,4.89,3.19,5.2,3.29,5.49 M2.06,7.95C2.36,7.66,2.5,7.22,2.5,6.62V2.26H1.22v4.33
		c0,0.23-0.04,0.4-0.12,0.52C1.02,7.23,0.88,7.3,0.68,7.3c-0.11,0-0.2-0.01-0.27-0.02C0.34,7.27,0.26,7.25,0.17,7.22L0,8.26
		C0.14,8.3,0.29,8.34,0.44,8.35C0.6,8.37,0.72,8.38,0.8,8.38C1.35,8.38,1.77,8.24,2.06,7.95"/>
</g>
</svg>
