<?xml version="1.0" encoding="UTF-8"?>
<svg data-name="Laag 1" viewBox="0 0 26.3 23.8" xmlns="http://www.w3.org/2000/svg">
  <defs>
    <style>.cls-1 {
      fill: #606060;
      }

      .cls-2 {
      fill: #fff;
      }</style>
  </defs>
  <path class="cls-1" transform="translate(-.05 -.17)" d="M13.19,16.16H10.05a1.1,1.1,0,0,1-.9-.44L5.23,10.86a1.12,1.12,0,0,1-.23-1C5.43,8,5.87,6.09,6.3,4.2c0-.14.07-.28.1-.42A1.08,1.08,0,0,1,7,3l3.62-1.73,2-1a1.11,1.11,0,0,1,1,0L19.37,3a1.09,1.09,0,0,1,.64.81c.47,2,.93,4,1.4,6.06a1.1,1.1,0,0,1-.22,1q-2,2.43-3.92,4.88a1.14,1.14,0,0,1-.92.44Zm2.33-3.87.09-.06a4.44,4.44,0,0,0,1.77-2.17c.05-.11.06-.22.24-.24a.85.85,0,0,1,.39,0l.48.16a1.48,1.48,0,0,0,.36.1.35.35,0,0,0,.41-.28A.37.37,0,0,0,19,9.4c-.11,0-.23,0-.35-.05-.3,0-.62,0-.88-.24a.25.25,0,0,1-.1-.21.88.88,0,0,0,0-.17,4.49,4.49,0,0,0-.53-2.39L16.94,6a1.3,1.3,0,0,0,.1-.15,1.1,1.1,0,0,1,.14-.21,6.06,6.06,0,0,1,.53-.35,3.21,3.21,0,0,0,.3-.21.38.38,0,0,0,0-.5.36.36,0,0,0-.49-.05,1.37,1.37,0,0,0-.23.19l-.5.49a.38.38,0,0,1-.17.08,1.67,1.67,0,0,1-.26.06A4.54,4.54,0,0,0,13.63,4l-.11-.22a.47.47,0,0,1,0-.16c0-.22,0-.45.06-.67a2.16,2.16,0,0,0,0-.44.35.35,0,0,0-.36-.27.38.38,0,0,0-.33.33c0,.12,0,.24,0,.35A1.4,1.4,0,0,1,12.77,4,4.48,4.48,0,0,0,10,5.35l-.18-.06a.65.65,0,0,1-.21-.07c-.18-.16-.34-.34-.51-.5a1.6,1.6,0,0,0-.26-.21.35.35,0,0,0-.47.08.37.37,0,0,0,0,.47,1.71,1.71,0,0,0,.27.2l.59.38a.32.32,0,0,1,.1.13c0,.07.07.15.11.24h0a.41.41,0,0,0,0,.09,4.47,4.47,0,0,0-.65,2.76c0,.11.06.22-.11.26s0,0-.05.05a1,1,0,0,1-.18.1,3.43,3.43,0,0,1-.34.06c-.21,0-.41,0-.62.07a.36.36,0,1,0,.17.69c.11,0,.22-.07.33-.1.29-.08.55-.29.87-.14h0C9,9.8,9,9.89,9,10a4.48,4.48,0,0,0,1.77,2.23c.09.05.18.09.11.22s0,.05,0,.08a.46.46,0,0,1,0,.2c-.1.19-.22.37-.33.56a2.27,2.27,0,0,0-.19.34.35.35,0,0,0,.17.45.36.36,0,0,0,.46-.14,1.83,1.83,0,0,0,.14-.32c.07-.19.13-.4.21-.59a.75.75,0,0,1,.15-.2s.09,0,.1-.06.12-.08.21-.06a4.25,4.25,0,0,0,2.29.16c.24-.05.48-.12.71-.18,0,0,.07.09.11.11a.34.34,0,0,1,.2.22c.08.21.15.43.23.64a.9.9,0,0,0,.13.28.35.35,0,0,0,.44.14.34.34,0,0,0,.19-.41,2,2,0,0,0-.18-.36l-.34-.56a.33.33,0,0,1,0-.17A2.25,2.25,0,0,1,15.52,12.29Z"/>
  <path class="cls-1" transform="translate(-.05 -.17)" d="M6.49,20.08v1.28l.35-.08a1,1,0,0,1,1.28.84,1.73,1.73,0,0,1,0,1.1,1.12,1.12,0,0,1-1,.72,3.41,3.41,0,0,1-1.19-.09c-.09,0-.12-.05-.12-.15V20.32c0-.1,0-.13.12-.14S6.28,20.12,6.49,20.08Zm0,2.57c0,.18,0,.37,0,.56s0,.13.13.14h.24a.52.52,0,0,0,.5-.32,1.23,1.23,0,0,0,0-.78A.46.46,0,0,0,7,21.87a1,1,0,0,0-.35.06c-.08,0-.11.06-.11.14S6.5,22.46,6.5,22.65Z"/>
  <path class="cls-1" transform="translate(-.05 -.17)" d="M.77,20.08v2.14h0a.6.6,0,0,0,.08-.08c.22-.26.45-.51.67-.76a.17.17,0,0,1,.16-.08c.24,0,.48,0,.74,0l-1,1.12A6.52,6.52,0,0,1,2.5,23.9a4.17,4.17,0,0,0-.5,0,.46.46,0,0,1-.51-.26,6.94,6.94,0,0,0-.58-.76.34.34,0,0,0-.09-.08s0,0,0,0v1.1H.06s0-.08,0-.12V20.33c0-.1,0-.14.13-.15S.56,20.12.77,20.08Z"/>
  <path class="cls-1" transform="translate(-.05 -.17)" d="M11.05,22.84H9.39a.45.45,0,0,0,.22.38,1.07,1.07,0,0,0,.76.12c.15,0,.29-.06.45-.09,0,.17.06.34.08.51,0,0,0,.07-.06.07a2.08,2.08,0,0,1-1.55,0,1.06,1.06,0,0,1-.6-.78,1.62,1.62,0,0,1,.2-1.29,1.24,1.24,0,0,1,1.95-.06A1.7,1.7,0,0,1,11.05,22.84Zm-.68-.5c0-.33-.22-.51-.49-.5a.49.49,0,0,0-.49.5Z"/>
  <path class="cls-1" transform="translate(-.05 -.17)" d="M17.27,22.84a.54.54,0,0,0,.39.46,1.54,1.54,0,0,0,.85,0l.2-.05c0,.18.05.35.08.52,0,0,0,.07-.06.07a2,2,0,0,1-1.57,0,1,1,0,0,1-.59-.81,1.53,1.53,0,0,1,.21-1.23,1.25,1.25,0,0,1,1.86-.18,1.4,1.4,0,0,1,.31.84c0,.1,0,.2,0,.3s0,.13-.13.12H17.27Zm0-.49h.93a.09.09,0,0,0,0-.07.49.49,0,0,0-.31-.42A.5.5,0,0,0,17.28,22.35Z"/>
  <path class="cls-1" transform="translate(-.05 -.17)" d="M22.26,22.84a.49.49,0,0,0,.27.42,1.2,1.2,0,0,0,.7.08,4.24,4.24,0,0,0,.46-.1c0,.17.06.34.08.52a.12.12,0,0,1-.05.07,2.06,2.06,0,0,1-1.56,0,1.09,1.09,0,0,1-.63-.9,1.81,1.81,0,0,1,.13-1,1.24,1.24,0,0,1,2-.32,1.28,1.28,0,0,1,.31.76c0,.15,0,.31,0,.49H22.26Zm1-.5a.47.47,0,0,0-.47-.51.49.49,0,0,0-.49.51Z"/>
  <path class="cls-1" transform="translate(-.05 -.17)" d="m4.35 21.32h0.71v0.13 2.24a0.14 0.14 0 0 1-0.13 0.16 4.79 4.79 0 0 1-1.19 0.1 0.89 0.89 0 0 1-0.88-0.83v-1.71-0.09h0.7s0 0.08 0 0.12v1.29a1.59 1.59 0 0 0 0.06 0.37 0.28 0.28 0 0 0 0.25 0.23 3 3 0 0 0 0.42 0s0-0.07 0-0.11v-1.75z"/>
  <path class="cls-1" transform="translate(-.05 -.17)" d="M14.45,23.89h-.71v-.11c0-.75,0-1.51,0-2.26,0-.09,0-.13.13-.15a3.62,3.62,0,0,1,1.27-.09.88.88,0,0,1,.82.89c0,.55,0,1.09,0,1.63,0,.08,0,.1-.11.1h-.49c-.09,0-.11,0-.11-.12V22.67a2.28,2.28,0,0,0,0-.45.37.37,0,0,0-.4-.36,1.36,1.36,0,0,0-.29,0,.16.16,0,0,0-.07.12v1.88Z"/>
  <path class="cls-1" transform="translate(-.05 -.17)" d="M24.37,23.82l.12-.56c.22,0,.42.09.63.12a1.36,1.36,0,0,0,.35,0,.31.31,0,0,0,.16-.14c0-.07,0-.15-.09-.19a2.8,2.8,0,0,0-.3-.15l-.37-.16a.71.71,0,0,1-.43-.74.69.69,0,0,1,.53-.67,2,2,0,0,1,1.2,0s.06.06,0,.08-.07.32-.1.48l-.51-.09a.64.64,0,0,0-.28,0,.3.3,0,0,0-.17.14c0,.09,0,.17.11.21l.31.14.37.17a.72.72,0,0,1,.37.9.63.63,0,0,1-.51.48A2.3,2.3,0,0,1,24.37,23.82Z"/>
  <path class="cls-1" transform="translate(-.05 -.17)" d="M20.23,20.58v.73h.87v.6h-.7c-.17,0-.17,0-.17.16s0,.55,0,.82c0,.47.24.48.6.45l.28-.06.09.51s0,.05-.06.06a1.66,1.66,0,0,1-1,.06.8.8,0,0,1-.61-.81c0-.71,0-1.43,0-2.14,0-.29,0-.29.29-.34l.38-.06Z"/>
  <path class="cls-1" transform="translate(-.05 -.17)" d="m11.65 23.9v-0.13-2.2c0-0.09 0-0.13 0.11-0.15a2.7 2.7 0 0 1 1.49-0.09h0.08l-0.12 0.58-0.43-0.06h-0.29s-0.11 0.06-0.11 0.14v1.81c0 0.08 0 0.1-0.1 0.1z"/>
  <path class="cls-2" transform="translate(-.05 -.17)" d="M16.53,9.67l-.11,0-1.33-.23-.31-.05c-.26,0-.42.18-.32.44L15,11.18c0,.08.07.16.11.25A3.55,3.55,0,0,0,16.53,9.67ZM10.74,5.91,10.9,6l1.25.89a.3.3,0,0,0,.51-.22V6.61c0-.37.05-.75.07-1.13,0-.17,0-.35,0-.52A3.36,3.36,0,0,0,10.74,5.91ZM9.68,8.79l.11,0,1.54-.44a.34.34,0,0,0,.27-.26c0-.14-.06-.23-.15-.32L11,7.38l-.86-.77A3.55,3.55,0,0,0,9.68,8.79Zm6.55-2.18-.07.06L15,7.75a.31.31,0,0,0,.12.57l.69.2,1,.28A3.58,3.58,0,0,0,16.23,6.61Zm-4.14,5.2a3.62,3.62,0,0,0,2.23,0l0-.1c-.19-.33-.37-.66-.55-1-.1-.16-.18-.33-.28-.49a.28.28,0,0,0-.5,0l-.12.2C12.59,10.91,12.34,11.35,12.09,11.81ZM9.88,9.67a3.53,3.53,0,0,0,1.39,1.74l0,0c.22-.53.44-1.05.65-1.57a.29.29,0,0,0-.33-.42c-.26,0-.5.08-.75.12Zm3.79-4.73a.59.59,0,0,0,0,.11c0,.36,0,.71.05,1.07,0,.2,0,.4,0,.61a.27.27,0,0,0,.3.26.67.67,0,0,0,.23-.1l1-.69.4-.29A3.53,3.53,0,0,0,13.67,4.94Zm-.46,3c-.21-.06-.33,0-.46.2a.48.48,0,0,0-.1.46A.52.52,0,0,0,13,9a.51.51,0,0,0,.48,0,.47.47,0,0,0,.3-.38.47.47,0,0,0-.11-.48C13.52,8,13.41,7.85,13.21,7.91Z"/>
  <path class="cls-1" transform="translate(-.05 -.17)" d="M16.53,9.67a3.55,3.55,0,0,1-1.39,1.76c0-.09-.07-.17-.11-.25l-.57-1.37c-.1-.26.06-.48.32-.44l.31.05,1.33.23Z"/>
  <path class="cls-1" transform="translate(-.05 -.17)" d="M10.74,5.91a3.36,3.36,0,0,1,2-1c0,.17,0,.35,0,.52,0,.38,0,.76-.07,1.13V6.7a.3.3,0,0,1-.51.22L10.9,6Z"/>
  <path class="cls-1" transform="translate(-.05 -.17)" d="M9.68,8.79a3.55,3.55,0,0,1,.49-2.18l.86.77.42.37c.09.09.18.18.15.32a.34.34,0,0,1-.27.26l-1.54.44Z"/>
  <path class="cls-1" transform="translate(-.05 -.17)" d="M16.23,6.61a3.58,3.58,0,0,1,.5,2.19l-1-.28-.69-.2A.31.31,0,0,1,15,7.75l1.21-1.08Z"/>
  <path class="cls-1" transform="translate(-.05 -.17)" d="M12.09,11.81c.25-.46.5-.9.74-1.35l.12-.2a.28.28,0,0,1,.5,0c.1.16.18.33.28.49.18.33.36.66.55,1l0,.1A3.62,3.62,0,0,1,12.09,11.81Z"/>
  <path class="cls-1" transform="translate(-.05 -.17)" d="M9.88,9.67l1-.16c.25,0,.49-.09.75-.12a.29.29,0,0,1,.33.42c-.21.52-.43,1-.65,1.57l0,0A3.53,3.53,0,0,1,9.88,9.67Z"/>
  <path class="cls-1" transform="translate(-.05 -.17)" d="M13.67,4.94a3.53,3.53,0,0,1,2,1l-.4.29-1,.69a.67.67,0,0,1-.23.1.27.27,0,0,1-.3-.26c0-.21,0-.41,0-.61,0-.36,0-.71-.05-1.07A.59.59,0,0,1,13.67,4.94Z"/>
  <path class="cls-1" transform="translate(-.05 -.17)" d="M13.21,7.91c.2-.06.31,0,.43.19a.47.47,0,0,1,.11.48.47.47,0,0,1-.3.38A.51.51,0,0,1,13,9a.52.52,0,0,1-.32-.4.48.48,0,0,1,.1-.46C12.88,8,13,7.85,13.21,7.91Z"/>
</svg>
