<?xml version="1.0" encoding="UTF-8"?>
<svg data-name="Laag 1" viewBox="0 0 22.35 8.67" xmlns="http://www.w3.org/2000/svg">
  <defs>
    <style>.cls-1 {
      fill: #7f7f7f;
      }</style>
  </defs>
  <path class="cls-1" transform="translate(-.02 -6.54)" d="M0,6.54H22.37V14H11.18v1.24H6.24v-1.1c0-.14,0-.14-.14-.14H0V6.54ZM19.87,9v3.6c0,.09,0,.12.11.12h1c.1,0,.12,0,.12-.12V7.88c0-.12,0-.12-.13-.12H13.78c-.09,0-.12,0-.12.12v4.76c0,.1,0,.12.12.12h2.27c.1,0,.12,0,.12-.12V9h1.22v3.61c0,.08,0,.11.1.11h1.16V9ZM10,12.75h2.36c.09,0,.12,0,.12-.12q0-2.38,0-4.77c0-.08,0-.11-.11-.11H7.56c-.08,0-.1,0-.1.11v6c0,.06,0,.11.08.11H9.88c.07,0,.09,0,.09-.1V12.75ZM3.75,9H5v3.6c0,.09,0,.12.11.12h1c.09,0,.11,0,.11-.11V7.88c0-.09,0-.12-.11-.12H1.36c-.09,0-.12,0-.12.12q0,2.39,0,4.77c0,.08,0,.11.11.11h2.4Z"/>
  <path class="cls-1" transform="translate(-.02 -6.54)" d="m11.19 9v0.1 2.24c0 0.09 0 0.11-0.11 0.11h-1c-0.05 0-0.09 0-0.09-0.08v-2.31-0.06z"/>
</svg>
