<?xml version="1.0" encoding="UTF-8"?>
<svg data-name="Layer 1" viewBox="0 0 98.1 118.03" xmlns="http://www.w3.org/2000/svg">
  <defs>
    <style>.cls-1 {
      fill: #a0a0a0;
      }

      .cls-2 {
      fill: #fff;
      }</style>
  </defs>
  <path class="cls-1" transform="translate(.03 .01)" d="M91.8,15.6C80.9-.1,59.2-4.7,43.6,5.2L16.1,22.8A31.25,31.25,0,0,0,1.9,43.9,32.74,32.74,0,0,0,5.2,65.2,30.19,30.19,0,0,0,.5,77a33.65,33.65,0,0,0,5.7,25.4c11,15.7,32.6,20.3,48.2,10.4L81.9,95.3A31.25,31.25,0,0,0,96.1,74.2a32.74,32.74,0,0,0-3.3-21.3,30.19,30.19,0,0,0,4.7-11.8,33,33,0,0,0-5.7-25.5"/>
  <path class="cls-2" transform="translate(.03 .01)" d="M40.9,103.9a21.8,21.8,0,0,1-23.4-8.7A20.25,20.25,0,0,1,14,79.9c.2-.9.4-1.7.6-2.6l.5-1.6,1.4,1a36.48,36.48,0,0,0,10.8,5.4l1,.3-.1,1a6.69,6.69,0,0,0,1.1,4.1,6.62,6.62,0,0,0,7.1,2.7,8.65,8.65,0,0,0,1.7-.7L65.5,72a5.67,5.67,0,0,0,2.6-3.8,6.21,6.21,0,0,0-1-4.6A6.56,6.56,0,0,0,60,61a8.65,8.65,0,0,0-1.7.7L47.8,68.4a18.6,18.6,0,0,1-5.6,2.4,21.8,21.8,0,0,1-23.4-8.7,20.2,20.2,0,0,1-3.4-15.3A18.94,18.94,0,0,1,24,34.1L51.5,16.6a21.17,21.17,0,0,1,29,6.2A20.25,20.25,0,0,1,84,38.1a25,25,0,0,1-.7,2.6l-.5,1.6-1.4-1a36.48,36.48,0,0,0-10.8-5.4l-1-.3.1-1a6.69,6.69,0,0,0-1.1-4.1,6.56,6.56,0,0,0-7.1-2.6,8.65,8.65,0,0,0-1.7.7L32.4,46.1a5.67,5.67,0,0,0-2.6,3.8,6.21,6.21,0,0,0,1,4.6,6.56,6.56,0,0,0,7.1,2.6,8.65,8.65,0,0,0,1.7-.7l10.5-6.7a21.17,21.17,0,0,1,29,6.2,20.25,20.25,0,0,1,3.5,15.3A18.94,18.94,0,0,1,74,83.9L46.5,101.4a21.76,21.76,0,0,1-5.6,2.5"/>
</svg>
